<?xml version="1.0" encoding="utf-8"?>
<!-- Generator: Adobe Illustrator 27.5.0, SVG Export Plug-In . SVG Version: 6.00 Build 0)  -->
<svg version="1.1" xmlns="http://www.w3.org/2000/svg" xmlns:xlink="http://www.w3.org/1999/xlink" x="0px" y="0px"
	 viewBox="0 0 3710 3710" style="enable-background:new 0 0 3710 3710;" xml:space="preserve">
<g id="Background">
	<g>
		<g>
			<rect style="fill:#FFFFFF;" width="3710" height="3710"/>
		</g>
	</g>
</g>
<g id="Illustration">
	<g id="Back_end_development">
		<path style="fill:#F4F7FA;" d="M2379.441,570.205c-201.335-42.832-410.661-63.361-615.33-50.275
			c-181.402,11.598-387.025,43.255-533.002,156.648c-69.567,54.039-152.529,151.139-175.284,236.801
			c-0.003,0.01-119.778,450.896-359.327,547.515c-239.551,96.62-405.906,1745.606,1410.69,1584.572
			c0,0,1066.97-42.197,1131.214-1257.652c15.519-293.616,6.848-616.401-179.07-861.913
			c-142.47-188.137-342.083-271.789-571.462-330.322C2452.039,586.435,2415.871,577.955,2379.441,570.205z"/>
		<g>
			<path style="fill:#D8DEE8;" d="M2291.084,1571.275l12.147,62.222c-27.094,10.734-52.952,23.607-77.259,38.598l-41.505-47.657
				c-11.324-13.003-31.076-14.22-44.123-2.721l-81.685,71.988c-13.076,11.525-14.517,31.445-3.209,44.497l41.865,48.32
				c-18.004,22.625-34.088,46.765-48.016,72.175l-60.632-20.617c-16.349-5.559-34.229,3.365-39.939,19.938l-35.78,103.833
				c-5.733,16.634,2.894,34.663,19.277,40.26l60.84,20.789c-4.517,28.405-6.529,57.464-6.094,86.885l-63.652,12.981
				c-17.088,3.485-28.326,20.332-25.099,37.64l20.224,108.465c3.241,17.381,19.764,28.646,36.901,25.151l63.84-13.019
				c10.315,27.609,22.795,53.967,37.393,78.77l-49.089,43.632c-13.239,11.765-14.711,32.154-3.284,45.545l71.596,83.885
				c11.47,13.44,31.523,14.76,44.776,2.943l49.084-43.758c22.494,18.502,46.563,34.958,71.899,49.235l-21.123,62.776
				c-5.719,16.997,3.113,35.451,19.733,41.211l104.057,36.062c16.658,5.775,34.776-3.363,40.46-20.4l20.785-62.293
				c28.54,4.544,57.74,6.44,87.292,5.8l12.588,64.483c3.446,17.651,20.254,29.114,37.542,25.588l108.105-22.046
				c17.286-3.525,28.461-20.694,24.965-38.335l-12.674-63.933c27.708-10.883,54.101-24.035,78.898-39.358l42.11,48.601
				c11.691,13.494,31.868,14.822,45.056,2.961l82.388-74.084c13.159-11.833,14.329-32.327,2.621-45.77l-41.972-48.196
				c18.318-23.301,34.546-48.202,48.549-74.371l59.761,20.42c16.701,5.708,34.708-3.374,40.208-20.275l34.34-105.489
				c5.481-16.839-3.594-35.077-20.259-40.744l-59.189-20.125c4.238-29.078,5.823-58.792,4.881-88.816l61.051-12.45
				c17.138-3.495,28.126-20.371,24.542-37.682l-22.367-108.027c-3.569-17.238-20.315-28.379-37.403-24.894l-60.871,12.413
				c-10.91-27.784-23.992-54.246-39.225-79.05l46.234-41.219c13.001-11.589,14.146-31.61,2.562-44.713l-72.298-81.792
				c-11.54-13.055-31.415-14.28-44.4-2.738l-46.527,41.355c-22.793-18.142-47.092-34.263-72.646-48.124l19.759-59.216
				c5.498-16.478-3.366-34.297-19.793-39.806l-102.615-34.403c-16.391-5.495-34.158,3.373-39.69,19.813l-19.973,59.355
				c-28.241-4.179-57.102-5.812-86.299-4.918l-12.23-61.69c-3.366-16.975-19.828-27.928-36.771-24.473l-105.962,21.609
				C2298.817,1537.726,2287.768,1554.29,2291.084,1571.275z M2170.175,2161.185c-33.348-174.464,79.103-343.543,250.987-378.596
				c171.881-35.052,339.625,76.885,374.856,250.966c35.444,175.134-76.534,346.616-250.304,382.053
				C2371.942,2451.047,2203.725,2336.706,2170.175,2161.185z"/>
			<path style="fill:#D8DEE8;" d="M2841.61,1292.808l3.572,18.299c-7.968,3.157-15.573,6.943-22.721,11.351l-12.206-14.015
				c-3.331-3.824-9.139-4.182-12.976-0.8l-24.022,21.171c-3.845,3.389-4.269,9.248-0.944,13.086l12.312,14.21
				c-5.295,6.654-10.025,13.753-14.121,21.226l-17.831-6.063c-4.808-1.635-10.066,0.99-11.746,5.863l-10.522,30.536
				c-1.686,4.892,0.851,10.194,5.669,11.84l17.892,6.114c-1.329,8.353-1.92,16.9-1.792,25.552l-18.719,3.818
				c-5.025,1.025-8.33,5.979-7.381,11.069l5.948,31.898c0.953,5.112,5.813,8.425,10.852,7.397l18.775-3.829
				c3.034,8.12,6.704,15.871,10.997,23.165l-14.436,12.832c-3.893,3.46-4.326,9.456-0.966,13.394l21.055,24.669
				c3.374,3.952,9.271,4.341,13.168,0.866l14.435-12.869c6.615,5.441,13.694,10.281,21.145,14.479l-6.212,18.462
				c-1.682,4.999,0.915,10.426,5.803,12.12l30.602,10.605c4.899,1.698,10.227-0.989,11.899-6l6.113-18.32
				c8.393,1.336,16.981,1.894,25.671,1.705l3.702,18.964c1.014,5.191,5.957,8.562,11.041,7.525l31.792-6.483
				c5.083-1.037,8.37-6.086,7.342-11.274l-3.727-18.802c8.149-3.201,15.91-7.068,23.203-11.575l12.384,14.293
				c3.438,3.969,9.372,4.359,13.25,0.871l24.229-21.787c3.87-3.48,4.214-9.507,0.771-13.46l-12.343-14.174
				c5.387-6.853,10.159-14.176,14.278-21.871l17.575,6.005c4.912,1.679,10.207-0.992,11.825-5.962l10.099-31.023
				c1.612-4.952-1.057-10.316-5.958-11.982l-17.407-5.919c1.246-8.551,1.712-17.29,1.436-26.12l17.954-3.661
				c5.04-1.028,8.271-5.991,7.217-11.082l-6.578-31.77c-1.05-5.07-5.975-8.346-11-7.321l-17.901,3.651
				c-3.209-8.171-7.056-15.953-11.536-23.248l13.597-12.122c3.823-3.408,4.16-9.296,0.753-13.15l-21.262-24.054
				c-3.394-3.839-9.239-4.199-13.058-0.805l-13.683,12.162c-6.703-5.335-13.849-10.076-21.364-14.153l5.811-17.414
				c1.617-4.846-0.99-10.086-5.821-11.706l-30.178-10.118c-4.82-1.616-10.045,0.992-11.672,5.827l-5.874,17.455
				c-8.305-1.229-16.793-1.709-25.379-1.446l-3.596-18.142c-0.99-4.992-5.831-8.213-10.814-7.197l-31.162,6.355
				C2843.884,1282.942,2840.635,1287.814,2841.61,1292.808z M2806.052,1466.293c-9.807-51.308,23.263-101.031,73.812-111.34
				c50.548-10.308,99.879,22.611,110.24,73.806c10.424,51.505-22.508,101.935-73.611,112.357
				C2865.389,1551.538,2815.919,1517.912,2806.052,1466.293z"/>
		</g>
		<g>
			<g>
				<g>
					<defs>
						<path id="SVGID_1_" d="M1482.059,2194.004c36.604-111.546,73.86-281.835,30.246-470.897
							c-50.082-217.094-161.022-260.528-260.632-492.586c-142.189-331.256,18.734-571.208-128.464-672.452
							c-71.783-49.372-184.661-49.412-254.254,0.156c-198.553,141.421-144.121,757.415,170.903,997.792
							c142.476,108.716,266.802,95.819,373.719,236.5C1508.052,1916.825,1500.643,2080.82,1482.059,2194.004z"/>
					</defs>
					
						<linearGradient id="SVGID_00000110455122464809492940000017967633540786124942_" gradientUnits="userSpaceOnUse" x1="871.2615" y1="534.7165" x2="1345.9905" y2="2045.2167">
						<stop  offset="0" style="stop-color:#FF9085"/>
						<stop  offset="1" style="stop-color:#FB6FBB"/>
					</linearGradient>
					
						<use xlink:href="#SVGID_1_"  style="overflow:visible;fill:url(#SVGID_00000110455122464809492940000017967633540786124942_);"/>
					<clipPath id="SVGID_00000058587374431365412140000005137624535906563774_">
						<use xlink:href="#SVGID_1_"  style="overflow:visible;"/>
					</clipPath>
					<g style="clip-path:url(#SVGID_00000058587374431365412140000005137624535906563774_);">
						<path style="fill:#FFFFFF;" d="M1504.439,1913.334c-11.937-46.909-27.986-93.008-47.703-137.016
							c-45.31-101.132-95.317-156.762-158.627-227.191c-41.319-45.967-88.15-98.064-142.272-172.762
							c-101.26-139.758-132.684-188.857-160.844-268.003c-55.717-156.611-47.16-297.025-37.1-366.785
							c14.272-98.963,47.475-193.136,98.689-279.908l3.08,1.82c-50.974,86.365-84.023,180.101-98.227,278.599
							c-10.013,69.434-18.531,209.19,36.93,365.077c28.007,78.721,59.346,127.672,160.369,267.103
							c54.011,74.543,100.776,126.568,142.036,172.467c63.522,70.663,113.693,126.477,159.231,228.121
							c19.8,44.194,35.917,90.489,47.904,137.596L1504.439,1913.334z"/>
						<path style="fill:#FFFFFF;" d="M967.807,997.743l-2.589-1.403c-0.589-0.319-59.391-32.643-111.64-98.422
							c-48.243-60.733-100.663-163.235-76.429-306.651l3.528,0.597c-24.005,142.051,27.87,243.569,75.613,303.719
							c45.602,57.45,96.213,89.159,108.061,96.135c3.274-114.565,76.719-188.806,138.062-231.024
							c66.916-46.054,134.256-64.942,134.927-65.128l0.952,3.448c-0.667,0.184-67.508,18.946-133.934,64.685
							c-61.148,42.105-134.468,116.379-136.499,231.099L967.807,997.743z"/>
						<path style="fill:#FFFFFF;" d="M984.556,1366.191c-59.475,0-129.358-14.614-193.897-64.846l2.198-2.823
							c144.84,112.735,317.062,44,334.164,36.72c-29.255-113.121-3.379-196.569,23.561-246.732
							c29.335-54.627,66.3-82.711,66.67-82.987l2.146,2.861c-0.365,0.274-36.794,27.981-65.746,81.971
							c-26.703,49.793-52.332,132.799-22.783,245.463l0.38,1.453l-1.365,0.625C1128.818,1338.385,1066.59,1366.191,984.556,1366.191
							z"/>
						<path style="fill:#FFFFFF;" d="M1117.229,1581.964c-44.604,0-97.993-8.098-160.113-30.792l1.229-3.361
							c203.526,74.356,312.169-8.935,323.387-18.237c-49.531-115.873,20.225-303.26,20.937-305.146l3.347,1.264
							c-0.71,1.88-70.437,189.233-20.481,303.668l0.512,1.174l-0.946,0.863C1284.323,1532.106,1227.849,1581.964,1117.229,1581.964z
							"/>
					</g>
				</g>
			</g>
			<g>
				<g>
					<defs>
						<path id="SVGID_00000098942699101979934720000002126376656316522115_" d="M1545.773,2059.469
							c11.61-70.226,18.284-179.901-38.879-277.984c-99.725-171.113-281.496-114.352-455.484-297.676
							c-140.329-147.857-96.106-262.776-251.601-361.039c-26.027-16.448-163.551-106.96-265.82-52.443
							c-57.63,30.72-78.51,93.786-82.43,105.626c-59.242,178.936,123.018,459.085,360.576,587.216
							c136.487,73.616,180.522,49.558,420.707,135.416C1373.978,1949.036,1479.947,2014.001,1545.773,2059.469z"/>
					</defs>
					
						<linearGradient id="SVGID_00000090256762535042266330000001405390030226780321_" gradientUnits="userSpaceOnUse" x1="1740.5319" y1="4882.5703" x2="1636.0168" y2="4421.4731">
						<stop  offset="0" style="stop-color:#FF9085"/>
						<stop  offset="1" style="stop-color:#FB6FBB"/>
					</linearGradient>
					
						<use xlink:href="#SVGID_00000098942699101979934720000002126376656316522115_"  style="overflow:visible;fill:url(#SVGID_00000090256762535042266330000001405390030226780321_);"/>
					<clipPath id="SVGID_00000106845295358818805340000013034113605522115214_">
						<use xlink:href="#SVGID_00000098942699101979934720000002126376656316522115_"  style="overflow:visible;"/>
					</clipPath>
					<g style="clip-path:url(#SVGID_00000106845295358818805340000013034113605522115214_);">
						<path style="fill:#FFFFFF;" d="M1565.799,2144.037c-34.757-166.954-100.54-279.043-195.519-333.15
							c-46.336-26.396-83.362-30.587-122.56-35.023c-42.833-4.847-87.122-9.86-145.713-45.289
							c-57.016-34.48-77.401-67.588-103.212-109.506c-22.927-37.237-51.462-83.579-115.482-145.282
							c-56.124-54.094-97.015-79.424-133.094-101.772c-39.491-24.462-70.684-43.784-106.898-91.241
							c-59-77.313-89.834-176.371-91.645-294.425l3.577-0.056c1.799,117.272,32.386,215.619,90.912,292.31
							c35.815,46.932,66.76,66.102,105.938,90.371c36.232,22.443,77.295,47.878,133.693,102.236
							c64.346,62.018,93.012,108.575,116.046,145.984c25.556,41.505,45.741,74.288,102.016,108.318
							c57.921,35.025,101.814,39.992,144.265,44.797c39.574,4.479,76.953,8.711,123.929,35.471
							c95.909,54.636,162.275,167.525,197.251,335.528L1565.799,2144.037z"/>
						<path style="fill:#FFFFFF;" d="M752.301,1384.324c-122.043,0-213.15-46.778-268.838-86.909
							c-62.735-45.21-95.326-92.024-95.649-92.491l2.948-2.028c0.318,0.464,32.632,46.85,94.907,91.701
							c57.075,41.105,151.703,89.247,278.823,85.992c-7.646-24.585-71.335-239.917,11.053-332.361l2.67,2.379
							c-85.645,96.102-10.372,328.805-9.601,331.146l0.748,2.275l-2.394,0.073C762.032,1384.249,757.141,1384.324,752.301,1384.324z
							"/>
						<path style="fill:#FFFFFF;" d="M742.927,1582.832c-78.059,0-177.618-16.067-277.512-75.953l1.84-3.07
							c124.213,74.469,247.925,80.719,329.837,72.852c81.32-7.811,138.652-30.691,148.21-34.704
							c-33.082-122.06-3.603-294.178-3.301-295.911l3.524,0.616c-0.302,1.731-29.882,174.488,3.637,295.85l0.41,1.483l-1.405,0.627
							c-0.603,0.269-61.237,26.981-150.599,35.586C780.952,1581.809,762.623,1582.832,742.927,1582.832z"/>
						<path style="fill:#FFFFFF;" d="M848.783,1866.252c-5.952,0-11.956-0.063-18.039-0.194l0.076-3.577
							c124.903,2.696,221.032-23.278,279.681-45.54c55.983-21.25,89.31-43.201,96.633-48.262
							c-91.637-113.85-55.73-299.685-55.355-301.557l3.507,0.701c-0.373,1.865-36.244,187.69,55.827,300.081l1.195,1.458
							l-1.519,1.116C1209.454,1771.463,1077.832,1866.252,848.783,1866.252z"/>
					</g>
				</g>
			</g>
			<g>
				<defs>
					<path id="SVGID_00000101798660598804712280000007712699252025064863_" d="M1548.22,1999.815
						c-39.055-28.069-102.981-68.695-188.964-99.177c-152.936-54.218-223.023-22.232-287.766-86.887
						c-67.017-66.926-23.609-132.845-103.845-207.582c-6.747-6.283-92.898-84.457-170.837-55.347
						c-54.523,20.364-75.753,82.3-85.715,111.36c-38.66,112.786-16.181,284.642,104.144,369.409
						c114.078,80.367,258.509,42.065,304.364,29.58c80.446-21.905,99.511-53.259,181.293-73.087
						C1400.35,1963.97,1489.742,1981.833,1548.22,1999.815z"/>
				</defs>
				
					<linearGradient id="SVGID_00000110449003558133745340000017096792166737556125_" gradientUnits="userSpaceOnUse" x1="1287.1852" y1="1677.5601" x2="609.0715" y2="2234.5828">
					<stop  offset="0" style="stop-color:#FF9085"/>
					<stop  offset="1" style="stop-color:#FB6FBB"/>
				</linearGradient>
				
					<use xlink:href="#SVGID_00000101798660598804712280000007712699252025064863_"  style="overflow:visible;fill:url(#SVGID_00000110449003558133745340000017096792166737556125_);"/>
				<clipPath id="SVGID_00000129184268166030959580000007686258894314294457_">
					<use xlink:href="#SVGID_00000101798660598804712280000007712699252025064863_"  style="overflow:visible;"/>
				</clipPath>
				<g style="clip-path:url(#SVGID_00000129184268166030959580000007686258894314294457_);">
					<defs>
						<path id="SVGID_00000043453460319476095960000000101602059667528351_" d="M1580.005,2025.597
							c-94.552-69.185-186.775-101.786-274.13-96.897c-38.122,2.132-64.958,10.643-90.909,18.875
							c-32.936,10.443-64.034,20.321-115.77,18.151c-92.923-3.879-172.272-35.475-223.435-88.966
							c-79.207-82.816-96.802-221.574-44.824-353.5l3.33,1.313c-51.469,130.631-34.167,267.902,44.081,349.715
							c50.519,52.82,129.004,84.025,220.998,87.865c51.075,2.129,81.914-7.639,114.539-17.987
							c26.163-8.297,53.219-16.878,91.789-19.038c88.2-4.924,181.203,27.896,276.443,97.585L1580.005,2025.597z"/>
					</defs>
					<defs>
						<path id="SVGID_00000069371122688528238260000015214029727181745343_" d="M840.744,1823.982l-2.59-0.925
							c-1.521-0.542-152.241-55.641-161.603-172.5l3.566-0.285c8.508,106.2,136.761,160.617,156.665,168.433
							c-9.021-150.658,172.956-233.828,174.805-234.657l1.462,3.266c-1.84,0.823-183.796,84.008-172.512,233.924L840.744,1823.982z"
							/>
					</defs>
					<defs>
						<path id="SVGID_00000119108986213986386690000007374744895051557816_" d="M869.205,2002.328
							c-54.736,0-124.724-13.404-204.632-58.879l1.771-3.108c112.03,63.751,204.28,63.957,261.935,52.908
							c55.523-10.643,90.4-33.422,97.654-38.497c-87.393-122.811,19.142-268.605,20.232-270.071l2.868,2.137
							c-1.078,1.45-106.898,146.321-19.158,267.291l1.026,1.413l-1.389,1.059c-0.366,0.28-37.36,28.064-100.561,40.182
							C911.902,2000.031,891.859,2002.328,869.205,2002.328z"/>
					</defs>
					<use xlink:href="#SVGID_00000043453460319476095960000000101602059667528351_"  style="overflow:visible;fill:#FFFFFF;"/>
					<use xlink:href="#SVGID_00000069371122688528238260000015214029727181745343_"  style="overflow:visible;fill:#FFFFFF;"/>
					<use xlink:href="#SVGID_00000119108986213986386690000007374744895051557816_"  style="overflow:visible;fill:#FFFFFF;"/>
					<clipPath id="SVGID_00000140714183181197111790000013745403896008600452_">
						<use xlink:href="#SVGID_00000043453460319476095960000000101602059667528351_"  style="overflow:visible;"/>
					</clipPath>
					
						<clipPath id="SVGID_00000034067475638220223310000002540237674846554042_" style="clip-path:url(#SVGID_00000140714183181197111790000013745403896008600452_);">
						<use xlink:href="#SVGID_00000069371122688528238260000015214029727181745343_"  style="overflow:visible;"/>
					</clipPath>
					
						<clipPath id="SVGID_00000014626596002777089480000011308380090657921201_" style="clip-path:url(#SVGID_00000034067475638220223310000002540237674846554042_);">
						<use xlink:href="#SVGID_00000119108986213986386690000007374744895051557816_"  style="overflow:visible;"/>
					</clipPath>
				</g>
			</g>
		</g>
		<g>
			
				<linearGradient id="SVGID_00000065038914574338601110000003692505806640309419_" gradientUnits="userSpaceOnUse" x1="1723.5359" y1="3085.2925" x2="1525.4052" y2="3168.5073">
				<stop  offset="0" style="stop-color:#40447E"/>
				<stop  offset="0.9964" style="stop-color:#3C3B6B"/>
			</linearGradient>
			<path style="fill:url(#SVGID_00000065038914574338601110000003692505806640309419_);" d="M3352.552,2976.667l-2820.2-24.788
				v73.343c0,19.907,12.301,36.834,28.96,39.85l797.468,144.426c9.464,1.714,19.062,2.168,28.612,1.356l1934.513-164.669
				c17.271-1.47,30.647-18.449,30.647-38.902V2976.667z"/>
			<g>
				
					<linearGradient id="SVGID_00000173141959498023915820000003734157105460637336_" gradientUnits="userSpaceOnUse" x1="1401.1653" y1="2204.4841" x2="1195.7365" y2="2290.7642">
					<stop  offset="0" style="stop-color:#40447E"/>
					<stop  offset="0.9964" style="stop-color:#3C3B6B"/>
				</linearGradient>
				<path style="fill:url(#SVGID_00000173141959498023915820000003734157105460637336_);" d="M2329.112,2857.774L561.515,2991.946
					c-31.63,2.401-57.348-23.111-57.348-56.989V1577.68c0-33.878,25.718-61.342,57.348-61.342h1767.597
					c26.058,0,47.127,24.827,47.127,55.452v1226.954C2376.24,2829.369,2355.171,2855.795,2329.112,2857.774z"/>
				
					<linearGradient id="SVGID_00000050624157993884008580000011069408847054072227_" gradientUnits="userSpaceOnUse" x1="532.3517" y1="2254.2205" x2="2404.4241" y2="2254.2205">
					<stop  offset="0" style="stop-color:#40447E"/>
					<stop  offset="0.9964" style="stop-color:#3C3B6B"/>
				</linearGradient>
				<path style="fill:url(#SVGID_00000050624157993884008580000011069408847054072227_);" d="M2357.296,2857.774L589.699,2991.946
					c-31.631,2.401-57.348-23.111-57.348-56.989V1577.68c0-33.878,25.717-61.342,57.348-61.342h1767.597
					c26.059,0,47.128,24.827,47.128,55.452v1226.954C2404.424,2829.369,2383.355,2855.795,2357.296,2857.774z"/>
				
					<linearGradient id="SVGID_00000158713358012923009250000013107988056193763208_" gradientUnits="userSpaceOnUse" x1="652.6023" y1="2857.7432" x2="2552.9756" y2="1310.2429">
					<stop  offset="0" style="stop-color:#AA80F9"/>
					<stop  offset="0.9964" style="stop-color:#6165D7"/>
				</linearGradient>
				<path style="fill:url(#SVGID_00000158713358012923009250000013107988056193763208_);" d="M2302.231,2771.271L655.899,2887.818
					c-25.74,1.822-46.657-19.117-46.657-46.774V1652.745c0-27.656,20.917-50.17,46.657-50.285l1646.332-7.318
					c21.496-0.096,38.884,20.248,38.884,45.438v1082.327C2341.115,2748.097,2323.727,2769.75,2302.231,2771.271z"/>
				<path style="fill:#FFFFFF;" d="M1535.925,1553.463c0,12.611-9.098,22.864-20.332,22.901
					c-11.249,0.037-20.377-10.18-20.377-22.82c0-12.64,9.129-22.893,20.377-22.902
					C1526.827,1530.634,1535.925,1540.851,1535.925,1553.463z"/>
				<path style="opacity:0.48;fill:#FFFFFF;" d="M1931.422,2485.519c-136.266-78.752-243.411,21.036-346.814-77.42
					c-62.69-59.691-31.912-104.202-109.05-193.403c-85.436-98.797-141.06-65.586-226.922-154.504
					c-108.567-112.431-54.268-199.905-147.785-280.626c-113.449-97.927-235.798-7.289-343.794-101.205
					c-46.579-40.506-72.136-99.395-85.482-162.023H565.905c-18.517,0-33.554,16.12-33.554,36.005V2959.28
					c0,19.885,15.037,34.86,33.554,33.448l1801.471-137.35c8.841-0.674,16.68-6.218,21.711-14.256
					c-131.873-5.163-212.889-52.647-264.677-101.735C2023.1,2643.356,2040.672,2548.657,1931.422,2485.519z"/>
			</g>
			
				<linearGradient id="SVGID_00000127024977166650271420000007716938649397531817_" gradientUnits="userSpaceOnUse" x1="532.3517" y1="2997.8154" x2="3352.5518" y2="2997.8154">
				<stop  offset="0" style="stop-color:#40447E"/>
				<stop  offset="0.9964" style="stop-color:#3C3B6B"/>
			</linearGradient>
			<path style="fill:url(#SVGID_00000127024977166650271420000007716938649397531817_);" d="M2427.748,2851.688l-1895.397,141.23
				l826.428,149.67c9.464,1.714,19.062,2.169,28.612,1.356l1965.16-167.278l-894.653-124.018
				C2447.893,2851.261,2437.802,2850.94,2427.748,2851.688z"/>
			
				<linearGradient id="SVGID_00000064314753113036182110000011552808587930191011_" gradientUnits="userSpaceOnUse" x1="808.9197" y1="2974.4958" x2="2875.2627" y2="2974.4958">
				<stop  offset="0" style="stop-color:#40447E"/>
				<stop  offset="0.9964" style="stop-color:#3C3B6B"/>
			</linearGradient>
			<polygon style="opacity:0.3;fill:url(#SVGID_00000064314753113036182110000011552808587930191011_);" points="808.92,2996.47 
				2386.894,2877.14 2875.263,2944.293 1310.882,3071.852 			"/>
			<g style="opacity:0.75;">
				<polygon style="fill:#FFFFFF;" points="945.133,1695.769 763.844,1696.402 763.844,1637.735 945.133,1637.735 				"/>
				<polygon style="fill:#FFFFFF;" points="1895.005,1692.453 1060.286,1695.367 1060.286,1637.735 1895.005,1637.735 				"/>
				<polygon style="fill:#FFFFFF;" points="1235.268,1792.159 1060.286,1793.814 1060.286,1736.181 1235.268,1735.137 				"/>
				<polygon style="fill:#FFFFFF;" points="2153.185,1783.48 1346.449,1791.108 1346.449,1734.474 2153.185,1729.663 				"/>
				<polygon style="fill:#FFFFFF;" points="1235.268,1889.562 1060.286,1892.26 1060.286,1834.627 1235.268,1832.54 				"/>
				<polygon style="fill:#FFFFFF;" points="2153.185,1875.408 1346.449,1887.848 1346.449,1831.214 2153.185,1821.591 				"/>
				<polygon style="fill:#FFFFFF;" points="945.133,1993.168 763.844,1997.045 763.844,1938.377 945.133,1935.134 				"/>
				<polygon style="fill:#FFFFFF;" points="1895.005,1972.858 1060.286,1990.706 1060.286,1933.073 1895.005,1918.139 				"/>
				<polygon style="fill:#FFFFFF;" points="1235.268,2084.367 1060.286,2089.152 1060.286,2031.52 1235.268,2027.345 				"/>
				<polygon style="fill:#FFFFFF;" points="2153.185,2059.265 1346.449,2081.326 1346.449,2024.693 2153.185,2005.448 				"/>
				<polygon style="fill:#FFFFFF;" points="1235.268,2181.77 1060.286,2187.598 1060.286,2129.965 1235.268,2124.748 				"/>
				<polygon style="fill:#FFFFFF;" points="2153.185,2151.193 1346.449,2178.066 1346.449,2121.432 2153.185,2097.376 				"/>
				<polygon style="fill:#FFFFFF;" points="1235.268,2279.172 1060.286,2286.044 1060.286,2228.412 1235.268,2222.15 				"/>
				<polygon style="fill:#FFFFFF;" points="2153.185,2243.122 1346.449,2274.806 1346.449,2218.172 2153.185,2189.305 				"/>
				<polygon style="fill:#FFFFFF;" points="1518.067,2363.781 1349.124,2371.424 1349.124,2314.8 1518.067,2307.747 				"/>
				<polygon style="fill:#FFFFFF;" points="2276.376,2329.477 1625.444,2358.924 1625.444,2303.264 2276.376,2276.09 				"/>
				<polygon style="fill:#FFFFFF;" points="945.133,2488.833 763.844,2498.115 763.844,2439.447 945.133,2430.798 				"/>
				<polygon style="fill:#FFFFFF;" points="1895.005,2440.198 1060.286,2482.937 1060.286,2425.304 1895.005,2385.479 				"/>
				<polygon style="fill:#FFFFFF;" points="1235.268,2571.38 1060.286,2581.383 1060.286,2523.75 1235.268,2514.358 				"/>
				<polygon style="fill:#FFFFFF;" points="2153.185,2518.906 1346.449,2565.024 1346.449,2508.39 2153.185,2465.089 				"/>
				<polygon style="fill:#FFFFFF;" points="1235.268,2668.782 1060.286,2679.829 1060.286,2622.196 1235.268,2611.76 				"/>
				<polygon style="fill:#FFFFFF;" points="2153.185,2610.835 1346.449,2661.764 1346.449,2605.13 2153.185,2557.018 				"/>
				<polygon style="fill:#FFFFFF;" points="945.133,2786.231 763.844,2798.757 763.844,2740.089 945.133,2728.197 				"/>
				<polygon style="fill:#FFFFFF;" points="1895.005,2720.602 1060.286,2778.275 1060.286,2720.642 1895.005,2665.883 				"/>
			</g>
			<g>
				
					<linearGradient id="SVGID_00000134208307274988311080000006833556338512676491_" gradientUnits="userSpaceOnUse" x1="2325.6819" y1="453.6134" x2="653.4004" y2="3798.1694">
					<stop  offset="0.0036" style="stop-color:#E38DDD"/>
					<stop  offset="1" style="stop-color:#9571F6"/>
				</linearGradient>
				<path style="fill:url(#SVGID_00000134208307274988311080000006833556338512676491_);" d="M2527.935,845.747L984.892,795.041
					c-51.743-1.7-93.866,39.117-93.866,91.176v1503.924c0,52.059,42.123,92.462,93.866,90.253l1543.044-65.889
					c44.631-1.906,80.671-42.41,80.671-90.477V935.431C2608.607,887.364,2572.567,847.214,2527.935,845.747z"/>
				<path style="opacity:0.74;fill:#FFFFFF;" d="M984.892,2450.422c-35.196,1.455-63.809-26.05-63.809-61.439V887.079
					c0-35.389,28.613-63.175,63.808-62.066l1543.044,48.633c30.402,0.958,54.982,28.29,54.982,61.05v1390.321
					c0,32.759-24.58,60.333-54.981,61.59L984.892,2450.422z"/>
				
					<linearGradient id="SVGID_00000166638056068131033570000012105373971911432357_" gradientUnits="userSpaceOnUse" x1="1602.4161" y1="349.163" x2="1892.9808" y2="1511.4258">
					<stop  offset="0.0036" style="stop-color:#E38DDD"/>
					<stop  offset="1" style="stop-color:#9571F6"/>
				</linearGradient>
				<path style="fill:url(#SVGID_00000166638056068131033570000012105373971911432357_);" d="M2527.936,845.747L984.892,795.041
					c-51.743-1.7-93.866,39.118-93.866,91.176v67.617l1717.583,44.028V935.43C2608.608,887.364,2572.568,847.214,2527.936,845.747z"
					/>
				<path style="fill:#FFFFFF;" d="M1057.921,881.935c0,16.911-13.615,30.244-30.434,29.778
					c-16.844-0.466-30.517-14.592-30.517-31.549c0-16.957,13.673-30.288,30.517-29.775
					C1044.305,850.9,1057.921,865.024,1057.921,881.935z"/>
				<path style="fill:#FFFFFF;" d="M1164.154,885.022c0,16.83-13.485,30.101-30.143,29.64
					c-16.683-0.462-30.226-14.518-30.226-31.394s13.543-30.145,30.226-29.637C1150.669,854.138,1164.154,868.192,1164.154,885.022z"
					/>
				<path style="fill:#FFFFFF;" d="M1269.377,888.08c0,16.75-13.358,29.959-29.857,29.503c-16.524-0.458-29.938-14.445-29.938-31.24
					c0-16.796,13.414-30.003,29.938-29.5C1256.02,857.344,1269.377,871.33,1269.377,888.08z"/>
				<g>
					<polygon style="fill:#FFFFFF;" points="1815.465,1142.008 1000.44,1127.359 1000.44,1175.28 1815.465,1188.177 					"/>
					<polygon style="fill:#FFFFFF;" points="2428.22,1153.022 2428.22,1197.874 2514.448,1199.238 2514.448,1154.572 					"/>
				</g>
				<g>
					<polygon style="fill:#FFFFFF;" points="1172.746,1292.501 1000.44,1290.666 1000.44,1241.25 1172.746,1243.467 					"/>
					<polygon style="fill:#FFFFFF;" points="2093.256,1302.302 1282.748,1293.672 1282.748,1244.882 2093.256,1255.309 					"/>
					<polygon style="fill:#FFFFFF;" points="1450.734,1378.167 1282.748,1377.014 1282.748,1328.224 1450.734,1329.749 					"/>
					<polygon style="fill:#FFFFFF;" points="2348.719,1384.327 1557.994,1378.903 1557.994,1330.722 2348.719,1337.9 					"/>
					<polygon style="fill:#FFFFFF;" points="1450.734,1460.873 1282.748,1460.356 1282.748,1411.566 1450.734,1412.455 					"/>
					<polygon style="fill:#FFFFFF;" points="2348.719,1463.632 1557.994,1461.202 1557.994,1413.022 2348.719,1417.205 					"/>
					<polygon style="fill:#FFFFFF;" points="1172.746,1543.777 1000.44,1543.9 1000.44,1494.484 1172.746,1494.743 					"/>
					<polygon style="fill:#FFFFFF;" points="2093.256,1543.12 1282.748,1543.698 1282.748,1494.908 2093.256,1496.126 					"/>
					<polygon style="fill:#FFFFFF;" points="1450.734,1626.284 1282.748,1627.04 1282.748,1578.25 1450.734,1577.866 					"/>
					<polygon style="fill:#FFFFFF;" points="2348.719,1622.242 1557.994,1625.801 1557.994,1577.621 2348.719,1575.815 					"/>
					<polygon style="fill:#FFFFFF;" points="1450.734,1708.99 1282.748,1710.382 1282.748,1661.592 1450.734,1660.572 					"/>
					<polygon style="fill:#FFFFFF;" points="2348.719,1701.547 1557.994,1708.101 1557.994,1659.921 2348.719,1655.12 					"/>
					<polygon style="fill:#FFFFFF;" points="1450.734,1791.696 1282.748,1793.724 1282.748,1744.934 1450.734,1743.278 					"/>
					<polygon style="fill:#FFFFFF;" points="2348.719,1780.852 1557.994,1790.401 1557.994,1742.22 2348.719,1734.425 					"/>
					<polygon style="fill:#FFFFFF;" points="1724.367,1870.061 1560.58,1872.66 1560.58,1824.485 1724.367,1822.25 					"/>
					<polygon style="fill:#FFFFFF;" points="2471.423,1858.211 1828.963,1868.402 1828.963,1820.823 2471.423,1812.056 					"/>
					<polygon style="fill:#FFFFFF;" points="1172.746,1962.57 1000.44,1965.956 1000.44,1916.54 1172.746,1913.536 					"/>
					<polygon style="fill:#FFFFFF;" points="2093.256,1944.482 1282.748,1960.408 1282.748,1911.618 2093.256,1897.489 					"/>
					<polygon style="fill:#FFFFFF;" points="1450.734,2039.813 1282.748,2043.75 1282.748,1994.96 1450.734,1991.395 					"/>
					<polygon style="fill:#FFFFFF;" points="2348.719,2018.767 1557.994,2037.3 1557.994,1989.119 2348.719,1972.34 					"/>
					<polygon style="fill:#FFFFFF;" points="1450.734,2122.519 1282.748,2127.093 1282.748,2078.302 1450.734,2074.101 					"/>
					<polygon style="fill:#FFFFFF;" points="2348.719,2098.073 1557.994,2119.599 1557.994,2071.419 2348.719,2051.645 					"/>
					<polygon style="fill:#FFFFFF;" points="1172.746,2213.846 1000.44,2219.189 1000.44,2169.773 1172.746,2164.812 					"/>
					<polygon style="fill:#FFFFFF;" points="2093.256,2185.3 1282.748,2210.435 1282.748,2161.644 2093.256,2138.306 					"/>
					<polygon style="fill:#FFFFFF;" points="1450.734,2287.931 1282.748,2293.777 1282.748,2244.986 1450.734,2239.513 					"/>
					<polygon style="fill:#FFFFFF;" points="2348.719,2256.682 1557.994,2284.198 1557.994,2236.018 2348.719,2210.256 					"/>
				</g>
				<g style="opacity:0.5;">
					<path style="fill:#FFFFFF;" d="M1928.144,1423.9c-180.225-262.246-492.174-178.809-689.513-468.562
						c-35.589-52.256-59.738-105.427-76.301-154.466l-177.438-5.831c-51.743-1.7-93.866,39.118-93.866,91.177v1503.923
						c0,52.059,42.123,92.462,93.866,90.253l1486.531-63.476c-34.054-49.113-330.655-231.032-407.275-510.343
						C1994.078,1651.14,2036.88,1582.12,1928.144,1423.9z"/>
				</g>
			</g>
		</g>
		<g>
			<g>
				
					<linearGradient id="SVGID_00000051376765342481473110000011169988849629351615_" gradientUnits="userSpaceOnUse" x1="1849.7653" y1="1474.724" x2="1807.4833" y2="1543.1215">
					<stop  offset="0" style="stop-color:#FFC444"/>
					<stop  offset="0.9964" style="stop-color:#F36F56"/>
				</linearGradient>
				<path style="fill:url(#SVGID_00000051376765342481473110000011169988849629351615_);" d="M1847.549,1544.521
					c4.293-6.652,12.126-20.81,12.626-39.822c0.974-36.944-26.427-65.758-30.11-64.105c-1.985,0.892,0.532,11.716,1.943,16.513
					c2.935,9.988,6.092,10.953,5.827,15.54c-0.543,9.444-14.176,9.808-21.368,22.34c-5.178,9.025-5.591,21.879,0,32.052
					C1825.745,1543.916,1846.666,1544.51,1847.549,1544.521z"/>
				
					<linearGradient id="SVGID_00000028293077150688883660000005053978406358643349_" gradientUnits="userSpaceOnUse" x1="2452.0232" y1="2284.259" x2="2469.0972" y2="2319.3691">
					<stop  offset="0" style="stop-color:#FFC444"/>
					<stop  offset="0.9964" style="stop-color:#F36F56"/>
				</linearGradient>
				<polygon style="fill:url(#SVGID_00000028293077150688883660000005053978406358643349_);" points="2432.857,2346.94 
					2422.325,2310.7 2466.295,2278.118 2493.701,2267.87 2477.474,2318.578 				"/>
				
					<linearGradient id="SVGID_00000132809344294518057550000009184598758152605841_" gradientUnits="userSpaceOnUse" x1="1158.9912" y1="3178.3567" x2="1158.9912" y2="3068.2102" gradientTransform="matrix(1 0 0 1 1249.563 0)">
					<stop  offset="0" style="stop-color:#FFC444"/>
					<stop  offset="0.9964" style="stop-color:#F36F56"/>
				</linearGradient>
				<path style="fill:url(#SVGID_00000132809344294518057550000009184598758152605841_);" d="M2378.43,3076.847
					c0,0,24.05,60.501,17.721,87.334c25.82-0.506,42.527-3.796,42.527-3.796s-10.378-27.593-12.404-41.262
					c-2.736-18.469-2.531-48.351-2.531-48.351L2378.43,3076.847z"/>
				<path style="fill:#26264F;" d="M2113.327,3218.354c1.555,1.877,4.315,5.8,4.546,11.115c0.126,2.887-0.534,5.263-1.364,7.447
					c-4.1,10.791-10.541,12.214-17.491,23.664c-4.246,6.996-3.444,9.105-7.335,12.263c-5.128,4.163-11.33,4.401-16.707,4.462
					c-9.085,0.105-22.167-0.22-38.636-2.183c8.631-11.124,17.81-22.424,27.571-33.834c4.281-5.002,8.555-9.889,12.817-14.66
					l25.376-8.575C2105.845,3218.153,2109.586,3218.254,2113.327,3218.354z"/>
				
					<linearGradient id="SVGID_00000069381414495715078720000013587339935454783877_" gradientUnits="userSpaceOnUse" x1="823.2632" y1="3209.7476" x2="823.2632" y2="3077.0027" gradientTransform="matrix(1 0 0 1 1249.563 0)">
					<stop  offset="0" style="stop-color:#FFC444"/>
					<stop  offset="0.9964" style="stop-color:#F36F56"/>
				</linearGradient>
				<path style="fill:url(#SVGID_00000069381414495715078720000013587339935454783877_);" d="M2092.224,3095.148
					c0,0-14.506,75.686,3.952,96.879c15.723,21.193-7.594,6.075-7.594,6.075l-27.846,24.302l-16.706,28.859
					c0,0,15.379-74.077,11.277-103.474c-4.101-29.396-6.153-49.222-6.153-49.222L2092.224,3095.148z"/>
				
					<linearGradient id="SVGID_00000060731665608516068850000008847238704523991179_" gradientUnits="userSpaceOnUse" x1="749.001" y1="2688.3057" x2="1183.2939" y2="2688.3057" gradientTransform="matrix(1 0 0 1 1249.563 0)">
					<stop  offset="0" style="stop-color:#311944"/>
					<stop  offset="1" style="stop-color:#893976"/>
				</linearGradient>
				<path style="fill:url(#SVGID_00000060731665608516068850000008847238704523991179_);" d="M2037.532,2267.259
					c0,0-38.968,34.865-38.968,178.43s18.459,455.305,18.459,455.305l29.537,223.19c0,0,30.626,1.09,51.135-5.062
					c18.458-84.089,48.536-226.331,34.178-345.285c-6.152-129.209,51.274-291.231,51.274-291.231s49.222,164.074,84.089,246.112
					c34.865,82.035,101.246,339.037,107.397,357.497c40.798,3.697,58.223-7.09,58.223-7.09s-26.159-276.575-50.769-381.172
					c-24.612-104.597-22.561-356.86-63.58-428.643C2226.217,2232.392,2037.532,2267.259,2037.532,2267.259z"/>
				
					<linearGradient id="SVGID_00000011743312188909199440000013965472652969018789_" gradientUnits="userSpaceOnUse" x1="735.1986" y1="2364.5642" x2="1048.0826" y2="2890.0886" gradientTransform="matrix(1 0 0 1 1249.563 0)">
					<stop  offset="0" style="stop-color:#311944"/>
					<stop  offset="1" style="stop-color:#893976"/>
				</linearGradient>
				<path style="fill:url(#SVGID_00000011743312188909199440000013965472652969018789_);" d="M2037.533,2267.259
					c0,0-38.97,34.865-38.97,178.43s18.46,455.305,18.46,455.305l29.537,223.19c0,0,30.626,1.09,51.135-5.062
					c18.459-84.089,48.536-226.331,34.18-345.285c-6.153-129.209,51.272-291.231,51.272-291.231s49.222,164.074,84.089,246.112
					c34.865,82.035,101.247,339.038,107.398,357.497c40.796,3.697,58.222-7.09,58.222-7.09s-26.16-276.575-50.769-381.172
					c-24.612-104.597-22.561-356.86-63.579-428.644C2226.218,2232.392,2037.533,2267.259,2037.533,2267.259z"/>
				
					<linearGradient id="SVGID_00000123424325892599867080000010227922829756588714_" gradientUnits="userSpaceOnUse" x1="858.3727" y1="2291.2295" x2="1171.2566" y2="2816.7537" gradientTransform="matrix(1 0 0 1 1249.563 0)">
					<stop  offset="0" style="stop-color:#311944"/>
					<stop  offset="1" style="stop-color:#893976"/>
				</linearGradient>
				<path style="opacity:0.25;fill:url(#SVGID_00000123424325892599867080000010227922829756588714_);" d="M2239.962,2530.311
					c12.15,78.981,36.452,121.51,97.207,176.188c48.603,36.452,12.151,115.434,30.378,176.188
					c6.075,18.226,24.301,36.452,30.377,54.678c22.607,45.217,1.492,100.525,11.743,148.4c15.952-2.203,23.191-6.64,23.191-6.64
					s-26.16-276.575-50.769-381.172c-24.612-104.597-22.561-356.861-63.579-428.644c-92.291-36.916-280.976-2.05-280.976-2.05
					s-38.97,34.865-38.97,178.43c0,11.649,0.124,24.418,0.348,38.024c40.455,35.802,123.194,43.758,174.221,4.071
					c3.083-2.313,6.363-3.73,9.751-4.418c0.157-0.454,0.264-0.76,0.264-0.76s0.085,0.284,0.215,0.71
					C2206.585,2479.079,2234.693,2509.235,2239.962,2530.311z"/>
				<g>
					<path style="fill:#26264F;" d="M2389.824,3187.14c0,0-5.993,0-5.495,7.742c0.501,7.741-2.698,34.374,27.77,35.622
						c30.468,1.248,35.167-2.157,36.166-2.157c0.999,0-7.992-25.475-7.992-25.475l-9.74-12.486l-26.223-2.747L2389.824,3187.14z"/>
					<path style="fill:#444B8C;" d="M2457.382,3213.873c-0.65-6.431-4.248-16.554-7.869-24.701
						c-5.379-12.102-0.963-16.631-6.104-27.654c-1.777-3.811-3.505-7.426-7.261-11.007c-0.865-0.823-9.272-8.593-21.515-8.198
						c-2.41,0.078-6.119,0.24-10.129,2.376c-4.724,2.518-7.091,6.3-9.112,9.62c-3.177,5.218-2.448,6.818-7.341,21.77
						c-0.394,1.199-1.255,3.809-1.917,7.409c-0.508,2.755-0.712,5.068-0.803,6.649c7.992,0,38.711,1.249,45.202,5.994
						c6.494,4.745,9.74,12.737,9.74,20.729c0,7.991,3.996,11.737,7.992,11.488
						C2451.834,3228.124,2458.927,3221.513,2457.382,3213.873z"/>
				</g>
				<path style="fill:#444B8C;" d="M2088.329,3181.395c6.863,0.108,11.898,5.569,15.695,18.732
					c3.798,13.164,22.024,24.809,0.761,22.024c-21.264-2.785-36.708,27.338-44.3,38.479c-7.595,11.138-27.981,21.033-27.475,10.149
					c0.505-10.885,9.501-15.972,12.032-27.11C2047.573,3232.529,2072.675,3181.15,2088.329,3181.395z"/>
				<path style="fill:#FFFFFF;" d="M2448.994,2284.587c5.046-14.029,36.538-106.184-14.361-190.227
					c-41.669-68.801-113.772-91.247-124.052-94.283c-62.583-18.482-93.949,5.262-113.696-16.59
					c-33.508-37.083,4.449-163.394,77.868-188.695c82.76-28.519,182.041,81.144,222.274,153.172
					c52.781,94.498,39.79,188.418,36.735,207.761c-7.936,50.265-26.388,88.606-40.062,112.146
					C2478.799,2273.442,2463.896,2279.015,2448.994,2284.587z"/>
				<path style="fill:#FFFFFF;" d="M2232.874,1776.959c-73.873-2.954-130.843-1.783-163.025,30.376
					c-33.991,33.968,0.359,72.317-7.021,161.171c-11.299,136.034-97.985,169.271-104.507,307.28
					c-2.199,46.5,5.67,84.508,11.781,107.396c19.025,23.693,50.163,57.129,96.117,85.086
					c66.872,40.685,105.651,33.592,201.688,59.875c157.089,42.993,171.065,94.192,248.959,81.148
					c78.723-13.183,147.791-79.433,139.448-115.813c-4.997-21.787-36.732-15.615-73.27-48.846
					c-47.091-42.827-28.93-83.708-64.733-129.731c-51.425-66.105-123.07-25.694-166.894-82.987
					c-44.329-57.956-26.746-172.157,10.621-234.408c24.406-40.659,34.858-88.306,55.627-130.938
					c1.726-3.542,3.729-9.35,2.847-16.611c-3.371-27.765-49.653-42.825-84.707-53.873
					C2282.344,1779.236,2238.95,1777.2,2232.874,1776.959z"/>
				
					<linearGradient id="SVGID_00000098939658787923585640000011587205525158002098_" gradientUnits="userSpaceOnUse" x1="938.8111" y1="1713.7295" x2="1002.9453" y2="1815.6665" gradientTransform="matrix(1 0 0 1 1249.563 0)">
					<stop  offset="0.0036" style="stop-color:#E38DDD"/>
					<stop  offset="1" style="stop-color:#9571F6"/>
				</linearGradient>
				<path style="fill:url(#SVGID_00000098939658787923585640000011587205525158002098_);" d="M2170.65,1773.904l14.57-4.483
					c0,0,3.811,19.725,50.657,22.19c26.001,0,42.811-14.569,42.811-14.569l9.955,7.257c0,0-21.841,27.283-56.577,26.589
					C2187.237,1809.992,2170.65,1773.904,2170.65,1773.904z"/>
				<g>
					
						<linearGradient id="SVGID_00000091734893733522609900000001751730706289060283_" gradientUnits="userSpaceOnUse" x1="1016.2374" y1="1698.0916" x2="945.7542" y2="1812.1084" gradientTransform="matrix(1 0 0 1 1249.563 0)">
						<stop  offset="0" style="stop-color:#FFC444"/>
						<stop  offset="0.9964" style="stop-color:#F36F56"/>
					</linearGradient>
					<path style="fill:url(#SVGID_00000091734893733522609900000001751730706289060283_);" d="M2200.318,1713.901
						c2.807-21.665,19.934-35.544,23.671-38.516c15.647-12.437,18.832-13.688,24.206-14.71l7.339-1.112c0,0,0.395,0.01,0.802,0.034
						c4.296,0.26,17.173,5.286,19.514,6.931c7.479,5.26,1.972,42.506-20.701,88.831c-0.892,3.922-1.782,7.846-2.675,11.767
						c19.761,3.473,24.656,7.038,24.811,9.885c0.337,6.166-21.299,14.033-41.352,14.544c-25.147,0.641-51.847-10.178-51.335-18.252
						c0.207-3.268,4.95-7.3,23.208-11.259c2.854-4.012,5.706-8.024,8.56-12.036
						C2213.776,1746.87,2198.25,1729.861,2200.318,1713.901z"/>
					
						<linearGradient id="SVGID_00000156550494809425203740000014945404840629966726_" gradientUnits="userSpaceOnUse" x1="439.7635" y1="1179.3821" x2="371.5563" y2="1289.7175" gradientTransform="matrix(0.9717 -0.2361 0.2361 0.9717 1534.775 640.4756)">
						<stop  offset="0" style="stop-color:#FFC444"/>
						<stop  offset="0.9964" style="stop-color:#F36F56"/>
					</linearGradient>
					<path style="fill:url(#SVGID_00000156550494809425203740000014945404840629966726_);" d="M2231.403,1705.745
						c5.703-3.414,10.048,3.924,7.362,10.337c-2.686,6.413-11.714,10.426-17.19,6.601
						C2216.098,1718.86,2223.728,1710.337,2231.403,1705.745z"/>
					
						<linearGradient id="SVGID_00000104665086423954563710000013491511834626868628_" gradientUnits="userSpaceOnUse" x1="2219.8997" y1="1211.0969" x2="2810.6021" y2="2149.9775">
						<stop  offset="0" style="stop-color:#444B8C"/>
						<stop  offset="0.9964" style="stop-color:#26264F"/>
					</linearGradient>
					<path style="fill:url(#SVGID_00000104665086423954563710000013491511834626868628_);" d="M2970.664,1705.636
						c-75.076-81.469-249.76-59.127-346.651,6.302c-45.022,30.404-68.129,66.316-121.328,69.331
						c-40.442,2.292-104.778-12.915-138.66-56.725c-4.269-5.519-21.342-28.667-46.979-57.858
						c-11.302-12.869-22.543-24.945-39.965-27.677c-4.426-0.693-19.151-3.089-28.885,6.42c-7.889,7.705-9.823,21.103-7.491,30.759
						c1.396,5.774,3.201,6.383,2.943,10.164c-0.723,10.62-20.067,15.246-18.99,20.595c0.768,3.822,10.836,2.423,12.571,7.221
						c1.9,5.257-9.157,9.781-13.908,23.002c-8.9,5.958-14.524,20.785-16.47,40.625c-2.86,29.165,0.07,52.863,5.597,70.71
						c26.607,85.932,45.64,147.398,91.701,181.722c60.982,45.442,115.893,3.485,271.019-3.151
						c212.412-9.086,265.373,62.913,341.716,13.658C3012.207,1979.232,3048.613,1790.219,2970.664,1705.636z"/>
				</g>
				<path style="fill:#FFFFFF;" d="M1856.524,1539.347c-1.894,17.773-8.3,96.395,45.93,162.779
					c50.674,62.029,122.438,74.419,135.776,76.435c64.524,9.75,92.351-18.059,114.898,0.89
					c38.263,32.153,17.932,162.468-51.338,197.569c-78.082,39.568-191.426-55.49-241.128-121.343
					c-65.208-86.393-65.18-181.207-64.799-200.786c0.988-50.879,14.025-91.383,24.35-116.57c4.241-1.277,10.698-2.69,18.614-2.415
					C1846.371,1536.169,1852.459,1537.866,1856.524,1539.347z"/>
				
					<linearGradient id="SVGID_00000031899204054389046860000018172037183324394917_" gradientUnits="userSpaceOnUse" x1="1993.7501" y1="1823.6466" x2="2329.3459" y2="2513.7454">
					<stop  offset="0" style="stop-color:#FF9085"/>
					<stop  offset="1" style="stop-color:#FB6FBB"/>
				</linearGradient>
				<path style="opacity:0.25;fill:url(#SVGID_00000031899204054389046860000018172037183324394917_);" d="M2519.229,2557.294
					c-18.889-19.365,1.905-58.418-25.998-87.45c-25.896-26.946-55.216-5.177-96.905-28.362
					c-53.471-29.739-38.737-84.181-89.814-113.45c-36.729-21.048-53.989,1.582-111.086-9.454
					c-57.001-11.017-126.426-50.313-160.72-120.54c-14.572-29.84-19.943-59.504-20.656-86.021
					c-25.636,45.802-52.227,89.696-55.729,163.769c-2.199,46.5,5.67,84.508,11.781,107.396
					c19.025,23.693,50.163,57.129,96.117,85.086c66.872,40.685,105.651,33.593,201.688,59.876
					c157.089,42.993,171.065,94.192,248.959,81.148c50.313-8.425,96.572-38.524,121.309-68.65
					C2565.577,2572.96,2532.939,2571.35,2519.229,2557.294z"/>
			</g>
		</g>
		<g>
			
				<linearGradient id="SVGID_00000013908546174338393230000000724655749212731024_" gradientUnits="userSpaceOnUse" x1="1856.1217" y1="-518.1541" x2="2680.623" y2="1136.422">
				<stop  offset="0" style="stop-color:#FFC444"/>
				<stop  offset="0.9964" style="stop-color:#F36F56"/>
			</linearGradient>
			<path style="fill:url(#SVGID_00000013908546174338393230000000724655749212731024_);" d="M3156.194,969.348
				c0-285.919-263.737-509.126-577.866-498.912c-178.891,5.817-334.534,86.462-431.719,205.512
				c-0.012-0.036-0.024-0.068-0.036-0.104c-0.603,0.74-1.166,1.509-1.765,2.252c-1.68,2.083-3.302,4.204-4.949,6.31
				c-3.001,3.841-5.958,7.707-8.842,11.625c-1.701,2.315-3.378,4.644-5.04,6.986c-2.772,3.909-5.474,7.859-8.13,11.839
				c-1.518,2.279-3.053,4.546-4.531,6.847c-2.958,4.599-5.806,9.26-8.602,13.948c-1.015,1.697-2.078,3.364-3.069,5.073
				c-3.688,6.356-7.226,12.79-10.613,19.299c-0.899,1.727-1.72,3.49-2.598,5.227c-2.465,4.884-4.875,9.792-7.169,14.758
				c-1.126,2.434-2.189,4.893-3.273,7.347c-1.939,4.394-3.821,8.811-5.624,13.264c-1.047,2.586-2.076,5.177-3.077,7.782
				c-1.754,4.57-3.418,9.175-5.027,13.802c-0.842,2.421-1.714,4.828-2.517,7.265c-1.917,5.824-3.699,11.697-5.385,17.607
				c-0.35,1.234-0.757,2.447-1.099,3.684c-1.966,7.129-3.744,14.325-5.365,21.57c-0.479,2.133-0.87,4.291-1.316,6.433
				c-1.086,5.197-2.111,10.408-3.017,15.66c-0.457,2.674-0.864,5.361-1.276,8.049c-0.747,4.858-1.417,9.736-2.005,14.637
				c-0.332,2.75-0.655,5.5-0.935,8.263c-0.526,5.168-0.929,10.366-1.279,15.579c-0.161,2.426-0.367,4.839-0.493,7.274
				c-0.385,7.617-0.624,15.267-0.624,22.972c0,183.477,111.122,345.322,277.714,431.976c15.321,7.969,31.119,15.309,47.352,21.978
				c8.128,3.34,16.367,6.51,24.711,9.507c58.641,21.067,122.47,33.554,189.598,35.515l0,0l0,0c0.003,0,0.003,0,0.003,0
				c9.25,0.27,18.449,0.313,27.607,0.181c3.093-0.044,6.148-0.217,9.23-0.306c6.055-0.176,12.115-0.355,18.127-0.704
				c3.676-0.213,7.312-0.545,10.972-0.822c5.371-0.407,10.741-0.813,16.071-1.356c3.905-0.398,7.776-0.893,11.658-1.362
				c5.039-0.61,10.075-1.234,15.076-1.965c3.992-0.583,7.954-1.24,11.92-1.898c4.839-0.804,9.664-1.64,14.46-2.556
				c4.015-0.766,8.009-1.581,11.992-2.424c4.695-0.994,9.366-2.04,14.018-3.14c3.989-0.943,7.966-1.911,11.919-2.93
				c4.598-1.186,9.16-2.444,13.712-3.733c3.916-1.109,7.831-2.217,11.708-3.401c1.431-0.437,2.899-0.809,4.324-1.256
				c-0.033-0.035-0.062-0.07-0.095-0.104C2998.363,1374.324,3156.194,1189.778,3156.194,969.348z"/>
			<g>
				
					<linearGradient id="SVGID_00000139296239648269800960000009925734907419794833_" gradientUnits="userSpaceOnUse" x1="2340.9858" y1="568.6235" x2="3141.8293" y2="2053.9507">
					<stop  offset="0" style="stop-color:#FFC444"/>
					<stop  offset="0.9964" style="stop-color:#F36F56"/>
				</linearGradient>
				<path style="fill:url(#SVGID_00000139296239648269800960000009925734907419794833_);" d="M3113.028,969.419
					c0,285.184-262.393,508.706-574.948,499.576c-300.911-8.79-536.744-231.505-536.744-497.739
					c0-266.234,235.832-489.727,536.744-499.512C2850.635,461.581,3113.028,684.235,3113.028,969.419z"/>
				<g>
					<path style="fill:#FFFFFF;" d="M2397.065,1107.546l-223.134-113.557v-36.572l223.134-129.205v62.247l-154.369,82.454
						l154.369,72.647V1107.546z"/>
					<path style="fill:#FFFFFF;" d="M2634.43,777.805l-126.906,383.518l-63.746-0.649l125.9-381.995L2634.43,777.805z"/>
					<path style="fill:#FFFFFF;" d="M2681.601,1046.421l163.075-74.425l-163.075-83.431v-63.353l237.82,130.334v38.299
						l-237.82,115.666V1046.421z"/>
				</g>
				<g style="opacity:0.3;">
					
						<linearGradient id="SVGID_00000153677926334516950220000013609193173118069427_" gradientUnits="userSpaceOnUse" x1="2121.0562" y1="667.3335" x2="2899.053" y2="2228.5864">
						<stop  offset="0" style="stop-color:#FFC444"/>
						<stop  offset="0.9964" style="stop-color:#F36F56"/>
					</linearGradient>
					<path style="fill:url(#SVGID_00000153677926334516950220000013609193173118069427_);" d="M2674.011,1344.889
						c-67.823-149.319,0.746-287.298-90.83-383.068c-91.986-96.198-209.968-6.276-335.028-83.254
						c-47.827-29.439-100.666-85.766-139.713-201.945c-67.359,82.691-107.103,184.663-107.103,294.635
						c0,266.234,235.832,488.948,536.743,497.739c70.55,2.061,138.615-7.775,201.784-27.618
						C2708.653,1408.851,2688.058,1375.816,2674.011,1344.889z"/>
				</g>
			</g>
		</g>
	</g>
</g>
</svg>
