<?xml version="1.0" encoding="utf-8"?>
<!-- Generator: Adobe Illustrator 27.5.0, SVG Export Plug-In . SVG Version: 6.00 Build 0)  -->
<svg version="1.1" id="Capa_1" xmlns="http://www.w3.org/2000/svg" xmlns:xlink="http://www.w3.org/1999/xlink" x="0px" y="0px"
	 viewBox="0 0 1218.898 1218.897" style="enable-background:new 0 0 1218.898 1218.897;" xml:space="preserve">
<g>
	<path style="opacity:0;fill:#221F1F;" d="M673.405,784.096c0,4.828-81.162,8.74-181.294,8.74
		c-100.133,0-181.296-3.912-181.296-8.74c0-4.822,81.163-8.742,181.296-8.742C592.243,775.354,673.405,779.273,673.405,784.096z"/>
	<path style="opacity:0.0244;fill:#221F1F;" d="M669.679,784.096c0,4.729-79.494,8.561-177.567,8.561
		c-98.075,0-177.569-3.832-177.569-8.561c0-4.723,79.494-8.563,177.569-8.563C590.185,775.533,669.679,779.373,669.679,784.096z"/>
	<path style="opacity:0.0488;fill:#221F1F;" d="M665.952,784.096c0,4.63-77.826,8.381-173.841,8.381
		c-96.017,0-173.843-3.751-173.843-8.381c0-4.624,77.826-8.383,173.843-8.383C588.126,775.713,665.952,779.472,665.952,784.096z"/>
	<path style="opacity:0.0732;fill:#221F1F;" d="M662.226,784.096c0,4.53-76.158,8.201-170.114,8.201
		c-93.959,0-170.116-3.671-170.116-8.201c0-4.524,76.157-8.203,170.116-8.203C586.068,775.893,662.226,779.571,662.226,784.096z"/>
	<path style="opacity:0.0976;fill:#221F1F;" d="M658.499,784.096c0,4.432-74.489,8.021-166.388,8.021
		c-91.901,0-166.389-3.59-166.389-8.021c0-4.426,74.488-8.023,166.389-8.023C584.01,776.072,658.499,779.67,658.499,784.096z"/>
	<path style="opacity:0.122;fill:#221F1F;" d="M654.772,784.096c0,4.332-72.821,7.842-162.661,7.842
		c-89.842,0-162.663-3.51-162.663-7.842c0-4.326,72.82-7.844,162.663-7.844C581.951,776.252,654.772,779.77,654.772,784.096z"/>
	<path style="opacity:0.1463;fill:#221F1F;" d="M651.046,784.096c0,4.232-71.153,7.662-158.935,7.662
		c-87.784,0-158.936-3.43-158.936-7.662c0-4.227,71.152-7.663,158.936-7.663C579.893,776.433,651.046,779.868,651.046,784.096z"/>
	<ellipse style="opacity:0.1707;fill:#221F1F;" cx="492.111" cy="784.096" rx="155.209" ry="7.483"/>
	<ellipse style="opacity:0.1951;fill:#221F1F;" cx="492.111" cy="784.096" rx="151.483" ry="7.304"/>
	<path style="opacity:0.2195;fill:#221F1F;" d="M639.866,784.096c0,3.936-66.148,7.124-147.755,7.124
		c-81.61,0-147.756-3.188-147.756-7.124c0-3.93,66.147-7.124,147.756-7.124C573.718,776.972,639.866,780.166,639.866,784.096z"/>
	<path style="opacity:0.2439;fill:#221F1F;" d="M636.14,784.096c0,3.836-64.48,6.944-144.028,6.944
		c-79.552,0-144.03-3.108-144.03-6.944c0-3.83,64.478-6.944,144.03-6.944C571.66,777.151,636.14,780.266,636.14,784.096z"/>
	<path style="opacity:0.2683;fill:#221F1F;" d="M632.413,784.096c0,3.736-62.812,6.765-140.302,6.765
		c-77.494,0-140.303-3.028-140.303-6.765c0-3.731,62.81-6.765,140.303-6.765C569.601,777.331,632.413,780.364,632.413,784.096z"/>
	<path style="opacity:0.2927;fill:#221F1F;" d="M628.687,784.096c0,3.638-61.144,6.585-136.575,6.585
		c-75.436,0-136.576-2.947-136.576-6.585c0-3.632,61.141-6.585,136.576-6.585C567.542,777.511,628.687,780.464,628.687,784.096z"/>
	<path style="opacity:0.3171;fill:#221F1F;" d="M624.96,784.096c0,3.538-59.476,6.405-132.849,6.405
		c-73.377,0-132.85-2.867-132.85-6.405c0-3.533,59.472-6.405,132.85-6.405C565.484,777.69,624.96,780.563,624.96,784.096z"/>
	<ellipse style="opacity:0.3415;fill:#221F1F;" cx="492.111" cy="784.096" rx="129.123" ry="6.226"/>
	<ellipse style="opacity:0.3659;fill:#221F1F;" cx="492.111" cy="784.096" rx="125.396" ry="6.046"/>
	<path style="opacity:0.3902;fill:#221F1F;" d="M613.78,784.096c0,3.24-54.471,5.866-121.669,5.866
		c-67.203,0-121.67-2.626-121.67-5.866c0-3.235,54.467-5.865,121.67-5.865C559.309,778.231,613.78,780.86,613.78,784.096z"/>
	<path style="opacity:0.4146;fill:#221F1F;" d="M610.053,784.096c0,3.142-52.802,5.687-117.942,5.687
		c-65.145,0-117.943-2.545-117.943-5.687c0-3.136,52.799-5.685,117.943-5.685C557.251,778.41,610.053,780.96,610.053,784.096z"/>
	<path style="opacity:0.439;fill:#221F1F;" d="M606.327,784.096c0,3.042-51.134,5.507-114.215,5.507
		c-63.086,0-114.217-2.465-114.217-5.507c0-3.037,51.13-5.506,114.217-5.506C555.192,778.59,606.327,781.059,606.327,784.096z"/>
	<path style="opacity:0.4634;fill:#221F1F;" d="M602.6,784.096c0,2.942-49.466,5.327-110.489,5.327
		c-61.028,0-110.49-2.385-110.49-5.327c0-2.938,49.462-5.326,110.49-5.326C553.134,778.77,602.6,781.158,602.6,784.096z"/>
	<path style="opacity:0.4878;fill:#221F1F;" d="M598.873,784.096c0,2.844-47.798,5.148-106.762,5.148
		c-58.97,0-106.763-2.304-106.763-5.148c0-2.839,47.793-5.146,106.763-5.146C551.076,778.949,598.873,781.257,598.873,784.096z"/>
	<path style="opacity:0.5122;fill:#221F1F;" d="M595.147,784.096c0,2.744-46.129,4.969-103.036,4.969
		c-56.912,0-103.037-2.225-103.037-4.969c0-2.739,46.124-4.967,103.037-4.967C549.018,779.129,595.147,781.357,595.147,784.096z"/>
	<path style="opacity:0.5366;fill:#221F1F;" d="M591.42,784.096c0,2.646-44.461,4.789-99.309,4.789
		c-54.854,0-99.31-2.144-99.31-4.789c0-2.641,44.456-4.787,99.31-4.787C546.959,779.309,591.42,781.455,591.42,784.096z"/>
	<path style="opacity:0.561;fill:#221F1F;" d="M587.694,784.096c0,2.546-42.793,4.609-95.582,4.609
		c-52.796,0-95.583-2.063-95.583-4.609c0-2.541,42.788-4.607,95.583-4.607C544.901,779.488,587.694,781.555,587.694,784.096z"/>
	<path style="opacity:0.5854;fill:#221F1F;" d="M583.967,784.096c0,2.446-41.125,4.43-91.856,4.43
		c-50.738,0-91.857-1.983-91.857-4.43c0-2.442,41.119-4.428,91.857-4.428C542.842,779.668,583.967,781.653,583.967,784.096z"/>
	<path style="opacity:0.6098;fill:#221F1F;" d="M580.241,784.096c0,2.348-39.457,4.25-88.129,4.25c-48.679,0-88.13-1.902-88.13-4.25
		c0-2.343,39.451-4.248,88.13-4.248C540.784,779.848,580.241,781.753,580.241,784.096z"/>
	<path style="opacity:0.6341;fill:#221F1F;" d="M576.514,784.096c0,2.248-37.789,4.07-84.403,4.07
		c-46.621,0-84.404-1.822-84.404-4.07c0-2.243,37.783-4.067,84.404-4.067C538.726,780.028,576.514,781.853,576.514,784.096z"/>
	<path style="opacity:0.6585;fill:#221F1F;" d="M572.788,784.096c0,2.149-36.121,3.891-80.676,3.891
		c-44.563,0-80.677-1.741-80.677-3.891c0-2.145,36.114-3.888,80.677-3.888C536.667,780.208,572.788,781.951,572.788,784.096z"/>
	<path style="opacity:0.6829;fill:#221F1F;" d="M569.061,784.096c0,2.05-34.452,3.711-76.95,3.711
		c-42.505,0-76.95-1.661-76.95-3.711c0-2.045,34.445-3.708,76.95-3.708C534.609,780.388,569.061,782.051,569.061,784.096z"/>
	<path style="opacity:0.7073;fill:#221F1F;" d="M565.334,784.096c0,1.95-32.784,3.531-73.223,3.531
		c-40.447,0-73.224-1.581-73.224-3.531c0-1.946,32.777-3.528,73.224-3.528C532.55,780.567,565.334,782.149,565.334,784.096z"/>
	<path style="opacity:0.7317;fill:#221F1F;" d="M561.608,784.096c0,1.852-31.116,3.352-69.497,3.352
		c-38.389,0-69.497-1.5-69.497-3.352c0-1.847,31.108-3.349,69.497-3.349C530.492,780.747,561.608,782.249,561.608,784.096z"/>
	<path style="opacity:0.7561;fill:#221F1F;" d="M557.881,784.096c0,1.752-29.448,3.172-65.77,3.172
		c-36.331,0-65.771-1.42-65.771-3.172c0-1.748,29.44-3.169,65.771-3.169C528.434,780.927,557.881,782.348,557.881,784.096z"/>
	<path style="opacity:0.7805;fill:#221F1F;" d="M554.155,784.096c0,1.652-27.779,2.992-62.043,2.992
		c-34.272,0-62.044-1.34-62.044-2.992c0-1.648,27.772-2.989,62.044-2.989C526.375,781.107,554.155,782.447,554.155,784.096z"/>
	<path style="opacity:0.8049;fill:#221F1F;" d="M550.428,784.096c0,1.554-26.111,2.813-58.317,2.813
		c-32.214,0-58.317-1.259-58.317-2.813c0-1.549,26.103-2.81,58.317-2.81C524.317,781.286,550.428,782.547,550.428,784.096z"/>
	<path style="opacity:0.8293;fill:#221F1F;" d="M546.702,784.096c0,1.454-24.443,2.633-54.59,2.633
		c-30.156,0-54.591-1.179-54.591-2.633c0-1.45,24.434-2.63,54.591-2.63C522.259,781.466,546.702,782.646,546.702,784.096z"/>
	<path style="opacity:0.8537;fill:#221F1F;" d="M542.975,784.096c0,1.355-22.775,2.454-50.864,2.454
		c-28.098,0-50.864-1.099-50.864-2.454c0-1.351,22.766-2.45,50.864-2.45C520.2,781.646,542.975,782.745,542.975,784.096z"/>
	<path style="opacity:0.878;fill:#221F1F;" d="M539.248,784.096c0,1.256-21.106,2.274-47.137,2.274
		c-26.04,0-47.138-1.018-47.138-2.274c0-1.252,21.098-2.27,47.138-2.27C518.142,781.826,539.248,782.844,539.248,784.096z"/>
	<path style="opacity:0.9024;fill:#221F1F;" d="M535.522,784.096c0,1.156-19.438,2.095-43.411,2.095
		c-23.982,0-43.411-0.938-43.411-2.095c0-1.152,19.429-2.09,43.411-2.09C516.083,782.006,535.522,782.943,535.522,784.096z"/>
	<path style="opacity:0.9268;fill:#221F1F;" d="M531.795,784.096c0,1.058-17.77,1.915-39.684,1.915
		c-21.923,0-39.684-0.857-39.684-1.915c0-1.054,17.761-1.91,39.684-1.91C514.025,782.186,531.795,783.042,531.795,784.096z"/>
	<path style="opacity:0.9512;fill:#221F1F;" d="M528.069,784.096c0,0.958-16.102,1.735-35.957,1.735
		c-19.865,0-35.957-0.777-35.957-1.735c0-0.954,16.092-1.73,35.957-1.73C511.967,782.365,528.069,783.142,528.069,784.096z"/>
	<path style="opacity:0.9756;fill:#221F1F;" d="M524.342,784.096c0,0.859-14.434,1.556-32.231,1.556
		c-17.807,0-32.231-0.696-32.231-1.556c0-0.855,14.424-1.551,32.231-1.551C509.909,782.545,524.342,783.24,524.342,784.096z"/>
	<path style="fill:#221F1F;" d="M520.616,784.096c0,0.76-12.766,1.376-28.504,1.376c-15.749,0-28.504-0.616-28.504-1.376
		c0-0.756,12.755-1.371,28.504-1.371C507.85,782.725,520.616,783.34,520.616,784.096z"/>
</g>
<g>
	<path style="opacity:0;fill:#221F1F;" d="M1181.047,858.19c0,6.275-148.615,11.361-331.972,11.361S517.1,864.465,517.1,858.19
		c0-6.271,148.619-11.365,331.976-11.365S1181.047,851.919,1181.047,858.19z"/>
	<path style="opacity:0.0244;fill:#221F1F;" d="M1174.223,858.19c0,6.146-145.561,11.128-325.147,11.128
		c-179.588,0-325.151-4.981-325.151-11.128c0-6.142,145.563-11.132,325.151-11.132
		C1028.662,847.058,1174.223,852.048,1174.223,858.19z"/>
	<path style="opacity:0.0488;fill:#221F1F;" d="M1167.399,858.19c0,6.018-142.506,10.894-318.324,10.894
		c-175.819,0-318.328-4.877-318.328-10.894c0-6.013,142.508-10.898,318.328-10.898
		C1024.894,847.292,1167.399,852.177,1167.399,858.19z"/>
	<path style="opacity:0.0732;fill:#221F1F;" d="M1160.575,858.19c0,5.889-139.451,10.661-311.5,10.661
		c-172.05,0-311.504-4.772-311.504-10.661c0-5.884,139.454-10.664,311.504-10.664
		C1021.124,847.525,1160.575,852.306,1160.575,858.19z"/>
	<path style="opacity:0.0976;fill:#221F1F;" d="M1153.752,858.19c0,5.76-136.397,10.428-304.677,10.428
		c-168.281,0-304.68-4.668-304.68-10.428c0-5.755,136.398-10.431,304.68-10.431C1017.355,847.759,1153.752,852.435,1153.752,858.19z
		"/>
	<path style="opacity:0.122;fill:#221F1F;" d="M1146.928,858.19c0,5.631-133.342,10.194-297.853,10.194
		c-164.513,0-297.856-4.563-297.856-10.194c0-5.626,133.343-10.196,297.856-10.196
		C1013.586,847.993,1146.928,852.563,1146.928,858.19z"/>
	<path style="opacity:0.1463;fill:#221F1F;" d="M1140.104,858.19c0,5.502-130.288,9.96-291.029,9.96
		c-160.744,0-291.032-4.458-291.032-9.96c0-5.497,130.288-9.963,291.032-9.963C1009.816,848.227,1140.104,852.692,1140.104,858.19z"
		/>
	<path style="opacity:0.1707;fill:#221F1F;" d="M1133.28,858.19c0,5.373-127.232,9.727-284.205,9.727
		c-156.975,0-284.208-4.354-284.208-9.727c0-5.368,127.233-9.729,284.208-9.729C1006.048,848.46,1133.28,852.821,1133.28,858.19z"/>
	<path style="opacity:0.1951;fill:#221F1F;" d="M1126.457,858.19c0,5.244-124.179,9.493-277.382,9.493
		c-153.206,0-277.384-4.249-277.384-9.493c0-5.239,124.178-9.495,277.384-9.495C1002.278,848.694,1126.457,852.95,1126.457,858.19z"
		/>
	<path style="opacity:0.2195;fill:#221F1F;" d="M1119.633,858.19c0,5.115-121.123,9.26-270.558,9.26
		c-149.438,0-270.56-4.145-270.56-9.26c0-5.11,121.123-9.262,270.56-9.262C998.51,848.928,1119.633,853.079,1119.633,858.19z"/>
	<path style="opacity:0.2439;fill:#221F1F;" d="M1112.809,858.19c0,4.986-118.069,9.026-263.734,9.026
		c-145.669,0-263.736-4.04-263.736-9.026c0-4.982,118.067-9.028,263.736-9.028C994.74,849.161,1112.809,853.208,1112.809,858.19z"/>
	<path style="opacity:0.2683;fill:#221F1F;" d="M1105.985,858.19c0,4.856-115.015,8.793-256.91,8.793
		c-141.9,0-256.912-3.937-256.912-8.793c0-4.852,115.012-8.795,256.912-8.795C990.971,849.395,1105.985,853.338,1105.985,858.19z"/>
	<path style="opacity:0.2927;fill:#221F1F;" d="M1099.162,858.19c0,4.727-111.96,8.56-250.087,8.56
		c-138.131,0-250.088-3.832-250.088-8.56c0-4.723,111.957-8.561,250.088-8.561C987.202,849.629,1099.162,853.467,1099.162,858.19z"
		/>
	<path style="opacity:0.3171;fill:#221F1F;" d="M1092.338,858.19c0,4.599-108.905,8.326-243.263,8.326
		c-134.362,0-243.264-3.728-243.264-8.326c0-4.594,108.902-8.327,243.264-8.327C983.433,849.862,1092.338,853.596,1092.338,858.19z"
		/>
	<path style="opacity:0.3415;fill:#221F1F;" d="M1085.515,858.19c0,4.47-105.851,8.093-236.439,8.093
		c-130.594,0-236.44-3.623-236.44-8.093c0-4.465,105.847-8.094,236.44-8.094C979.664,850.096,1085.515,853.725,1085.515,858.19z"/>
	<ellipse style="opacity:0.3659;fill:#221F1F;" cx="849.075" cy="858.19" rx="229.616" ry="7.859"/>
	<path style="opacity:0.3902;fill:#221F1F;" d="M1071.867,858.19c0,4.212-99.741,7.625-222.792,7.625
		c-123.056,0-222.793-3.413-222.793-7.625c0-4.207,99.737-7.626,222.793-7.626C972.126,850.563,1071.867,853.982,1071.867,858.19z"
		/>
	<path style="opacity:0.4146;fill:#221F1F;" d="M1065.043,858.19c0,4.083-96.686,7.392-215.968,7.392
		c-119.287,0-215.969-3.309-215.969-7.392c0-4.078,96.682-7.393,215.969-7.393C968.356,850.797,1065.043,854.111,1065.043,858.19z"
		/>
	<ellipse style="opacity:0.439;fill:#221F1F;" cx="849.075" cy="858.19" rx="209.145" ry="7.158"/>
	<ellipse style="opacity:0.4634;fill:#221F1F;" cx="849.075" cy="858.19" rx="202.32" ry="6.925"/>
	<ellipse style="opacity:0.4878;fill:#221F1F;" cx="849.075" cy="858.19" rx="195.497" ry="6.691"/>
	<path style="opacity:0.5122;fill:#221F1F;" d="M1037.748,858.19c0,3.567-84.468,6.458-188.673,6.458
		c-104.212,0-188.673-2.891-188.673-6.458c0-3.563,84.461-6.457,188.673-6.457C953.28,851.732,1037.748,854.627,1037.748,858.19z"/>
	<path style="opacity:0.5366;fill:#221F1F;" d="M1030.925,858.19c0,3.438-81.414,6.225-181.85,6.225
		c-100.443,0-181.849-2.786-181.849-6.225c0-3.434,81.405-6.224,181.849-6.224C949.511,851.966,1030.925,854.756,1030.925,858.19z"
		/>
	<path style="opacity:0.561;fill:#221F1F;" d="M1024.101,858.19c0,3.31-78.359,5.991-175.025,5.991
		c-96.675,0-175.025-2.682-175.025-5.991c0-3.305,78.351-5.99,175.025-5.99C945.741,852.199,1024.101,854.885,1024.101,858.19z"/>
	<path style="opacity:0.5854;fill:#221F1F;" d="M1017.277,858.19c0,3.181-75.305,5.758-168.202,5.758
		c-92.906,0-168.201-2.577-168.201-5.758c0-3.176,75.295-5.756,168.201-5.756C941.973,852.434,1017.277,855.014,1017.277,858.19z"/>
	<path style="opacity:0.6098;fill:#221F1F;" d="M1010.453,858.19c0,3.052-72.25,5.524-161.378,5.524
		c-89.137,0-161.377-2.473-161.377-5.524c0-3.047,72.24-5.523,161.377-5.523C938.203,852.667,1010.453,855.143,1010.453,858.19z"/>
	<path style="opacity:0.6341;fill:#221F1F;" d="M1003.63,858.19c0,2.923-69.195,5.29-154.555,5.29
		c-85.368,0-154.554-2.367-154.554-5.29c0-2.918,69.186-5.289,154.554-5.289C934.435,852.9,1003.63,855.271,1003.63,858.19z"/>
	<path style="opacity:0.6585;fill:#221F1F;" d="M996.806,858.19c0,2.794-66.141,5.057-147.73,5.057
		c-81.6,0-147.729-2.263-147.729-5.057c0-2.789,66.13-5.055,147.729-5.055C930.665,853.135,996.806,855.4,996.806,858.19z"/>
	<path style="opacity:0.6829;fill:#221F1F;" d="M989.982,858.19c0,2.665-63.086,4.823-140.907,4.823
		c-77.831,0-140.905-2.158-140.905-4.823c0-2.66,63.074-4.821,140.905-4.821C926.896,853.368,989.982,855.529,989.982,858.19z"/>
	<path style="opacity:0.7073;fill:#221F1F;" d="M983.158,858.19c0,2.536-60.031,4.59-134.083,4.59
		c-74.063,0-134.081-2.054-134.081-4.59c0-2.531,60.019-4.588,134.081-4.588C923.127,853.602,983.158,855.658,983.158,858.19z"/>
	<path style="opacity:0.7317;fill:#221F1F;" d="M976.335,858.19c0,2.407-56.977,4.356-127.26,4.356
		c-70.293,0-127.258-1.949-127.258-4.356c0-2.402,56.965-4.354,127.258-4.354C919.357,853.836,976.335,855.787,976.335,858.19z"/>
	<path style="opacity:0.7561;fill:#221F1F;" d="M969.511,858.19c0,2.277-53.922,4.123-120.435,4.123
		c-66.524,0-120.434-1.846-120.434-4.123c0-2.273,53.909-4.12,120.434-4.12C915.589,854.069,969.511,855.917,969.511,858.19z"/>
	<path style="opacity:0.7805;fill:#221F1F;" d="M962.688,858.19c0,2.148-50.868,3.89-113.612,3.89
		c-62.756,0-113.609-1.741-113.609-3.89c0-2.144,50.853-3.887,113.609-3.887C911.819,854.303,962.688,856.046,962.688,858.19z"/>
	<path style="opacity:0.8049;fill:#221F1F;" d="M955.863,858.19c0,2.019-47.813,3.656-106.788,3.656
		c-58.987,0-106.786-1.637-106.786-3.656c0-2.015,47.799-3.653,106.786-3.653C908.051,854.536,955.863,856.175,955.863,858.19z"/>
	<path style="opacity:0.8293;fill:#221F1F;" d="M949.04,858.19c0,1.891-44.759,3.423-99.965,3.423
		c-55.219,0-99.962-1.532-99.962-3.423c0-1.886,44.743-3.419,99.962-3.419C904.281,854.771,949.04,856.304,949.04,858.19z"/>
	<path style="opacity:0.8537;fill:#221F1F;" d="M942.216,858.19c0,1.762-41.704,3.189-93.141,3.189
		c-51.449,0-93.138-1.428-93.138-3.189c0-1.757,41.688-3.186,93.138-3.186C900.512,855.004,942.216,856.433,942.216,858.19z"/>
	<path style="opacity:0.878;fill:#221F1F;" d="M935.393,858.19c0,1.633-38.649,2.955-86.317,2.955
		c-47.681,0-86.315-1.322-86.315-2.955c0-1.628,38.634-2.952,86.315-2.952C896.743,855.237,935.393,856.562,935.393,858.19z"/>
	<path style="opacity:0.9024;fill:#221F1F;" d="M928.568,858.19c0,1.504-35.595,2.722-79.493,2.722
		c-43.912,0-79.49-1.218-79.49-2.722c0-1.499,35.578-2.718,79.49-2.718C892.974,855.472,928.568,856.69,928.568,858.19z"/>
	<path style="opacity:0.9268;fill:#221F1F;" d="M921.745,858.19c0,1.375-32.54,2.488-72.67,2.488
		c-40.144,0-72.666-1.113-72.666-2.488c0-1.37,32.522-2.484,72.666-2.484C889.205,855.705,921.745,856.819,921.745,858.19z"/>
	<path style="opacity:0.9512;fill:#221F1F;" d="M914.921,858.19c0,1.246-29.485,2.255-65.846,2.255
		c-36.374,0-65.842-1.009-65.842-2.255c0-1.241,29.468-2.251,65.842-2.251C885.435,855.938,914.921,856.948,914.921,858.19z"/>
	<path style="opacity:0.9756;fill:#221F1F;" d="M908.098,858.19c0,1.117-26.431,2.021-59.022,2.021
		c-32.605,0-59.019-0.904-59.019-2.021c0-1.112,26.413-2.017,59.019-2.017C881.667,856.173,908.098,857.077,908.098,858.19z"/>
	<path style="fill:#221F1F;" d="M901.273,858.19c0,0.988-23.376,1.788-52.198,1.788c-28.837,0-52.194-0.8-52.194-1.788
		c0-0.983,23.357-1.783,52.194-1.783C877.897,856.406,901.273,857.206,901.273,858.19z"/>
</g>
<g>
	<path style="opacity:0;fill:#221F1F;" d="M401.018,860.176c0,5.414-36.895,9.808-82.414,9.808c-45.518,0-82.415-4.393-82.415-9.808
		c0-5.414,36.897-9.809,82.415-9.809C364.123,850.367,401.018,854.762,401.018,860.176z"/>
	<ellipse style="opacity:0.0244;fill:#221F1F;" cx="318.604" cy="860.176" rx="80.721" ry="9.606"/>
	<path style="opacity:0.0488;fill:#221F1F;" d="M397.63,860.176c0,5.191-35.378,9.404-79.026,9.404
		c-43.647,0-79.027-4.213-79.027-9.404s35.38-9.405,79.027-9.405C362.251,850.771,397.63,854.984,397.63,860.176z"/>
	<ellipse style="opacity:0.0732;fill:#221F1F;" cx="318.604" cy="860.176" rx="77.333" ry="9.203"/>
	<path style="opacity:0.0976;fill:#221F1F;" d="M394.242,860.176c0,4.97-33.861,9.001-75.638,9.001
		c-41.776,0-75.639-4.031-75.639-9.001c0-4.969,33.863-9.002,75.639-9.002C360.38,851.174,394.242,855.207,394.242,860.176z"/>
	<ellipse style="opacity:0.122;fill:#221F1F;" cx="318.604" cy="860.176" rx="73.945" ry="8.8"/>
	<ellipse style="opacity:0.1463;fill:#221F1F;" cx="318.604" cy="860.176" rx="72.25" ry="8.599"/>
	<path style="opacity:0.1707;fill:#221F1F;" d="M389.16,860.176c0,4.636-31.586,8.397-70.556,8.397
		c-38.969,0-70.557-3.761-70.557-8.397c0-4.635,31.588-8.396,70.557-8.396C357.573,851.779,389.16,855.541,389.16,860.176z"/>
	<ellipse style="opacity:0.1951;fill:#221F1F;" cx="318.604" cy="860.176" rx="68.862" ry="8.195"/>
	<path style="opacity:0.2195;fill:#221F1F;" d="M385.771,860.176c0,4.413-30.07,7.993-67.167,7.993
		c-37.098,0-67.169-3.58-67.169-7.993c0-4.412,30.071-7.993,67.169-7.993C355.702,852.183,385.771,855.764,385.771,860.176z"/>
	<path style="opacity:0.2439;fill:#221F1F;" d="M384.078,860.176c0,4.302-29.311,7.792-65.474,7.792s-65.475-3.49-65.475-7.792
		c0-4.301,29.313-7.792,65.475-7.792S384.078,855.875,384.078,860.176z"/>
	<ellipse style="opacity:0.2683;fill:#221F1F;" cx="318.604" cy="860.176" rx="63.78" ry="7.59"/>
	<path style="opacity:0.2927;fill:#221F1F;" d="M380.689,860.176c0,4.08-27.795,7.389-62.085,7.389
		c-34.291,0-62.087-3.309-62.087-7.389c0-4.079,27.796-7.389,62.087-7.389C352.895,852.787,380.689,856.097,380.689,860.176z"/>
	<path style="opacity:0.3171;fill:#221F1F;" d="M378.996,860.176c0,3.969-27.037,7.188-60.392,7.188
		c-33.355,0-60.392-3.219-60.392-7.188c0-3.968,27.037-7.186,60.392-7.186C351.959,852.989,378.996,856.208,378.996,860.176z"/>
	<path style="opacity:0.3415;fill:#221F1F;" d="M377.301,860.176c0,3.857-26.278,6.985-58.697,6.985
		c-32.42,0-58.698-3.128-58.698-6.985c0-3.856,26.278-6.985,58.698-6.985C351.023,853.19,377.301,856.319,377.301,860.176z"/>
	<path style="opacity:0.3659;fill:#221F1F;" d="M375.607,860.176c0,3.746-25.52,6.784-57.003,6.784
		c-31.484,0-57.004-3.038-57.004-6.784c0-3.745,25.52-6.783,57.004-6.783C350.087,853.393,375.607,856.431,375.607,860.176z"/>
	<ellipse style="opacity:0.3902;fill:#221F1F;" cx="318.604" cy="860.176" rx="55.31" ry="6.582"/>
	<path style="opacity:0.4146;fill:#221F1F;" d="M372.219,860.176c0,3.523-24.003,6.381-53.615,6.381
		c-29.613,0-53.616-2.857-53.616-6.381c0-3.522,24.003-6.38,53.616-6.38C348.216,853.796,372.219,856.653,372.219,860.176z"/>
	<path style="opacity:0.439;fill:#221F1F;" d="M370.525,860.176c0,3.413-23.245,6.18-51.921,6.18
		c-28.677,0-51.922-2.767-51.922-6.18c0-3.411,23.245-6.179,51.922-6.179C347.28,853.997,370.525,856.765,370.525,860.176z"/>
	<path style="opacity:0.4634;fill:#221F1F;" d="M368.832,860.176c0,3.302-22.487,5.978-50.228,5.978
		c-27.742,0-50.228-2.676-50.228-5.978c0-3.3,22.486-5.977,50.228-5.977C346.344,854.199,368.832,856.876,368.832,860.176z"/>
	<path style="opacity:0.4878;fill:#221F1F;" d="M367.137,860.176c0,3.19-21.729,5.776-48.533,5.776
		c-26.806,0-48.534-2.586-48.534-5.776c0-3.188,21.727-5.775,48.534-5.775C345.409,854.4,367.137,856.987,367.137,860.176z"/>
	<path style="opacity:0.5122;fill:#221F1F;" d="M365.443,860.176c0,3.079-20.97,5.574-46.839,5.574
		c-25.871,0-46.84-2.495-46.84-5.574c0-3.077,20.969-5.573,46.84-5.573C344.473,854.603,365.443,857.099,365.443,860.176z"/>
	<path style="opacity:0.5366;fill:#221F1F;" d="M363.749,860.176c0,2.968-20.212,5.373-45.145,5.373
		c-24.935,0-45.146-2.405-45.146-5.373c0-2.966,20.21-5.372,45.146-5.372C343.537,854.804,363.749,857.21,363.749,860.176z"/>
	<path style="opacity:0.561;fill:#221F1F;" d="M362.055,860.176c0,2.857-19.454,5.171-43.451,5.171c-24,0-43.452-2.314-43.452-5.171
		c0-2.854,19.452-5.17,43.452-5.17C342.602,855.006,362.055,857.321,362.055,860.176z"/>
	<path style="opacity:0.5854;fill:#221F1F;" d="M360.361,860.176c0,2.746-18.695,4.97-41.757,4.97
		c-23.064,0-41.757-2.224-41.757-4.97c0-2.743,18.693-4.969,41.757-4.969C341.666,855.207,360.361,857.433,360.361,860.176z"/>
	<path style="opacity:0.6098;fill:#221F1F;" d="M358.667,860.176c0,2.635-17.937,4.769-40.063,4.769
		c-22.128,0-40.064-2.134-40.064-4.769c0-2.632,17.935-4.767,40.064-4.767C340.73,855.409,358.667,857.544,358.667,860.176z"/>
	<path style="opacity:0.6341;fill:#221F1F;" d="M356.973,860.176c0,2.523-17.179,4.566-38.369,4.566
		c-21.192,0-38.37-2.043-38.37-4.566c0-2.521,17.177-4.565,38.37-4.565C339.794,855.61,356.973,857.655,356.973,860.176z"/>
	<path style="opacity:0.6585;fill:#221F1F;" d="M355.279,860.176c0,2.412-16.42,4.365-36.675,4.365
		c-20.257,0-36.675-1.953-36.675-4.365c0-2.409,16.418-4.363,36.675-4.363C338.859,855.813,355.279,857.767,355.279,860.176z"/>
	<path style="opacity:0.6829;fill:#221F1F;" d="M353.585,860.176c0,2.301-15.662,4.163-34.981,4.163
		c-19.321,0-34.982-1.862-34.982-4.163c0-2.298,15.66-4.162,34.982-4.162C337.923,856.014,353.585,857.878,353.585,860.176z"/>
	<path style="opacity:0.7073;fill:#221F1F;" d="M351.891,860.176c0,2.19-14.904,3.962-33.287,3.962
		c-18.386,0-33.287-1.772-33.287-3.962c0-2.186,14.901-3.96,33.287-3.96C336.987,856.216,351.891,857.989,351.891,860.176z"/>
	<path style="opacity:0.7317;fill:#221F1F;" d="M350.197,860.176c0,2.078-14.145,3.761-31.593,3.761
		c-17.45,0-31.593-1.683-31.593-3.761c0-2.075,14.143-3.759,31.593-3.759C336.052,856.417,350.197,858.101,350.197,860.176z"/>
	<path style="opacity:0.7561;fill:#221F1F;" d="M348.503,860.176c0,1.968-13.387,3.559-29.899,3.559
		c-16.515,0-29.899-1.591-29.899-3.559c0-1.965,13.384-3.557,29.899-3.557C335.116,856.619,348.503,858.211,348.503,860.176z"/>
	<path style="opacity:0.7805;fill:#221F1F;" d="M346.809,860.176c0,1.857-12.628,3.357-28.205,3.357
		c-15.579,0-28.205-1.501-28.205-3.357c0-1.853,12.626-3.355,28.205-3.355C334.18,856.82,346.809,858.322,346.809,860.176z"/>
	<path style="opacity:0.8049;fill:#221F1F;" d="M345.115,860.176c0,1.745-11.87,3.155-26.511,3.155
		c-14.644,0-26.511-1.41-26.511-3.155c0-1.742,11.867-3.153,26.511-3.153C333.245,857.023,345.115,858.434,345.115,860.176z"/>
	<path style="opacity:0.8293;fill:#221F1F;" d="M343.421,860.176c0,1.634-11.112,2.954-24.817,2.954
		c-13.708,0-24.817-1.32-24.817-2.954c0-1.631,11.109-2.952,24.817-2.952C332.309,857.224,343.421,858.545,343.421,860.176z"/>
	<path style="opacity:0.8537;fill:#221F1F;" d="M341.727,860.176c0,1.523-10.354,2.752-23.122,2.752
		c-12.772,0-23.123-1.229-23.123-2.752c0-1.519,10.351-2.75,23.123-2.75C331.373,857.426,341.727,858.656,341.727,860.176z"/>
	<path style="opacity:0.878;fill:#221F1F;" d="M340.033,860.176c0,1.411-9.595,2.551-21.429,2.551
		c-11.837,0-21.429-1.14-21.429-2.551c0-1.408,9.592-2.549,21.429-2.549C330.438,857.627,340.033,858.768,340.033,860.176z"/>
	<path style="opacity:0.9024;fill:#221F1F;" d="M338.339,860.176c0,1.3-8.837,2.35-19.735,2.35c-10.901,0-19.735-1.05-19.735-2.35
		c0-1.297,8.834-2.347,19.735-2.347C329.501,857.829,338.339,858.879,338.339,860.176z"/>
	<path style="opacity:0.9268;fill:#221F1F;" d="M336.645,860.176c0,1.19-8.079,2.148-18.04,2.148
		c-9.965,0-18.041-0.958-18.041-2.148c0-1.185,8.075-2.146,18.041-2.146C328.566,858.03,336.645,858.99,336.645,860.176z"/>
	<path style="opacity:0.9512;fill:#221F1F;" d="M334.951,860.176c0,1.078-7.32,1.946-16.347,1.946
		c-9.03,0-16.347-0.868-16.347-1.946c0-1.074,7.317-1.943,16.347-1.943C327.63,858.232,334.951,859.102,334.951,860.176z"/>
	<path style="opacity:0.9756;fill:#221F1F;" d="M333.256,860.176c0,0.967-6.562,1.744-14.652,1.744
		c-8.094,0-14.652-0.777-14.652-1.744c0-0.963,6.558-1.742,14.652-1.742C326.694,858.434,333.256,859.213,333.256,860.176z"/>
	<path style="fill:#221F1F;" d="M331.563,860.176c0,0.856-5.804,1.543-12.958,1.543c-7.159,0-12.958-0.688-12.958-1.543
		c0-0.852,5.8-1.54,12.958-1.54C325.759,858.636,331.563,859.324,331.563,860.176z"/>
</g>
<g>
	<path style="opacity:0;fill:#221F1F;" d="M340.419,804.188c0,7.856-62.417,14.223-139.425,14.223
		c-77.006,0-139.426-6.367-139.426-14.223c0-7.846,62.42-14.217,139.426-14.217C278.002,789.971,340.419,796.342,340.419,804.188z"
		/>
	<path style="opacity:0.0244;fill:#221F1F;" d="M337.553,804.188c0,7.694-61.134,13.931-136.559,13.931
		c-75.423,0-136.56-6.236-136.56-13.931c0-7.685,61.137-13.925,136.56-13.925C276.419,790.263,337.553,796.503,337.553,804.188z"/>
	<path style="opacity:0.0488;fill:#221F1F;" d="M334.687,804.188c0,7.533-59.851,13.638-133.693,13.638
		c-73.841,0-133.694-6.104-133.694-13.638c0-7.523,59.854-13.632,133.694-13.632C274.836,790.556,334.687,796.664,334.687,804.188z"
		/>
	<path style="opacity:0.0732;fill:#221F1F;" d="M331.821,804.188c0,7.372-58.568,13.346-130.827,13.346
		c-72.258,0-130.828-5.974-130.828-13.346c0-7.361,58.57-13.34,130.828-13.34C273.253,790.848,331.821,796.826,331.821,804.188z"/>
	<path style="opacity:0.0976;fill:#221F1F;" d="M328.955,804.188c0,7.211-57.285,13.054-127.961,13.054
		c-70.675,0-127.962-5.843-127.962-13.054c0-7.2,57.287-13.048,127.962-13.048C271.67,791.14,328.955,796.987,328.955,804.188z"/>
	<path style="opacity:0.122;fill:#221F1F;" d="M326.089,804.188c0,7.049-56.002,12.762-125.095,12.762
		c-69.092,0-125.096-5.713-125.096-12.762c0-7.039,56.004-12.755,125.096-12.755C270.087,791.433,326.089,797.148,326.089,804.188z"
		/>
	<path style="opacity:0.1463;fill:#221F1F;" d="M323.224,804.188c0,6.888-54.72,12.469-122.23,12.469
		c-67.509,0-122.23-5.581-122.23-12.469c0-6.878,54.721-12.463,122.23-12.463C268.504,791.725,323.224,797.31,323.224,804.188z"/>
	<path style="opacity:0.1707;fill:#221F1F;" d="M320.357,804.188c0,6.727-53.436,12.177-119.363,12.177S81.63,810.914,81.63,804.188
		c0-6.716,53.438-12.17,119.364-12.17S320.357,797.472,320.357,804.188z"/>
	<path style="opacity:0.1951;fill:#221F1F;" d="M317.492,804.188c0,6.565-52.154,11.885-116.498,11.885
		c-64.344,0-116.498-5.319-116.498-11.885c0-6.555,52.155-11.878,116.498-11.878C265.338,792.31,317.492,797.633,317.492,804.188z"
		/>
	<path style="opacity:0.2195;fill:#221F1F;" d="M314.626,804.188c0,6.404-50.871,11.593-113.632,11.593
		s-113.633-5.188-113.633-11.593c0-6.393,50.872-11.586,113.633-11.586S314.626,797.794,314.626,804.188z"/>
	<path style="opacity:0.2439;fill:#221F1F;" d="M311.76,804.188c0,6.243-49.588,11.3-110.766,11.3
		c-61.178,0-110.767-5.057-110.767-11.3c0-6.232,49.588-11.293,110.767-11.293C262.172,792.895,311.76,797.955,311.76,804.188z"/>
	<path style="opacity:0.2683;fill:#221F1F;" d="M308.894,804.188c0,6.082-48.305,11.008-107.9,11.008
		c-59.595,0-107.901-4.926-107.901-11.008c0-6.071,48.306-11.001,107.901-11.001C260.589,793.187,308.894,798.116,308.894,804.188z"
		/>
	<path style="opacity:0.2927;fill:#221F1F;" d="M306.028,804.188c0,5.921-47.022,10.716-105.034,10.716
		c-58.013,0-105.035-4.795-105.035-10.716c0-5.909,47.022-10.709,105.035-10.709C259.006,793.479,306.028,798.278,306.028,804.188z"
		/>
	<path style="opacity:0.3171;fill:#221F1F;" d="M303.162,804.188c0,5.759-45.739,10.424-102.168,10.424
		c-56.43,0-102.169-4.665-102.169-10.424c0-5.748,45.739-10.416,102.169-10.416C257.423,793.771,303.162,798.44,303.162,804.188z"/>
	<path style="opacity:0.3415;fill:#221F1F;" d="M300.296,804.188c0,5.598-44.457,10.131-99.302,10.131
		c-54.847,0-99.303-4.533-99.303-10.131c0-5.587,44.456-10.124,99.303-10.124C255.84,794.063,300.296,798.601,300.296,804.188z"/>
	<path style="opacity:0.3659;fill:#221F1F;" d="M297.43,804.188c0,5.437-43.173,9.839-96.436,9.839
		c-53.264,0-96.437-4.402-96.437-9.839c0-5.426,43.173-9.832,96.437-9.832C254.257,794.356,297.43,798.762,297.43,804.188z"/>
	<path style="opacity:0.3902;fill:#221F1F;" d="M294.564,804.188c0,5.275-41.891,9.547-93.57,9.547
		c-51.681,0-93.571-4.271-93.571-9.547c0-5.264,41.89-9.539,93.571-9.539C252.674,794.648,294.564,798.924,294.564,804.188z"/>
	<path style="opacity:0.4146;fill:#221F1F;" d="M291.699,804.188c0,5.114-40.608,9.254-90.705,9.254
		c-50.099,0-90.705-4.14-90.705-9.254c0-5.102,40.606-9.247,90.705-9.247C251.091,794.94,291.699,799.085,291.699,804.188z"/>
	<path style="opacity:0.439;fill:#221F1F;" d="M288.832,804.188c0,4.953-39.325,8.962-87.838,8.962
		c-48.516,0-87.839-4.009-87.839-8.962c0-4.941,39.323-8.954,87.839-8.954C249.508,795.233,288.832,799.246,288.832,804.188z"/>
	<path style="opacity:0.4634;fill:#221F1F;" d="M285.967,804.188c0,4.792-38.042,8.67-84.973,8.67
		c-46.933,0-84.973-3.878-84.973-8.67c0-4.78,38.04-8.662,84.973-8.662C247.925,795.525,285.967,799.407,285.967,804.188z"/>
	<path style="opacity:0.4878;fill:#221F1F;" d="M283.101,804.188c0,4.631-36.759,8.378-82.107,8.378
		c-45.35,0-82.107-3.747-82.107-8.378c0-4.619,36.757-8.37,82.107-8.37C246.342,795.817,283.101,799.568,283.101,804.188z"/>
	<path style="opacity:0.5122;fill:#221F1F;" d="M280.235,804.188c0,4.469-35.476,8.085-79.241,8.085
		c-43.767,0-79.241-3.616-79.241-8.085c0-4.457,35.474-8.077,79.241-8.077C244.759,796.11,280.235,799.731,280.235,804.188z"/>
	<path style="opacity:0.5366;fill:#221F1F;" d="M277.369,804.188c0,4.308-34.193,7.793-76.375,7.793
		c-42.185,0-76.375-3.485-76.375-7.793c0-4.296,34.19-7.785,76.375-7.785C243.176,796.402,277.369,799.892,277.369,804.188z"/>
	<path style="opacity:0.561;fill:#221F1F;" d="M274.503,804.188c0,4.146-32.91,7.501-73.509,7.501
		c-40.602,0-73.509-3.354-73.509-7.501c0-4.135,32.908-7.493,73.509-7.493C241.593,796.694,274.503,800.053,274.503,804.188z"/>
	<path style="opacity:0.5854;fill:#221F1F;" d="M271.637,804.188c0,3.985-31.628,7.209-70.643,7.209
		c-39.018,0-70.643-3.224-70.643-7.209c0-3.974,31.625-7.2,70.643-7.2C240.01,796.987,271.637,800.214,271.637,804.188z"/>
	<path style="opacity:0.6098;fill:#221F1F;" d="M268.771,804.188c0,3.824-30.345,6.916-67.777,6.916
		c-37.436,0-67.777-3.092-67.777-6.916c0-3.813,30.341-6.908,67.777-6.908C238.427,797.279,268.771,800.375,268.771,804.188z"/>
	<path style="opacity:0.6341;fill:#221F1F;" d="M265.905,804.188c0,3.663-29.062,6.624-64.911,6.624
		c-35.853,0-64.911-2.961-64.911-6.624c0-3.65,29.058-6.615,64.911-6.615C236.844,797.572,265.905,800.537,265.905,804.188z"/>
	<path style="opacity:0.6585;fill:#221F1F;" d="M263.039,804.188c0,3.502-27.779,6.332-62.045,6.332
		c-34.27,0-62.045-2.83-62.045-6.332c0-3.489,27.775-6.323,62.045-6.323C235.261,797.864,263.039,800.698,263.039,804.188z"/>
	<path style="opacity:0.6829;fill:#221F1F;" d="M260.174,804.188c0,3.341-26.496,6.039-59.18,6.039
		c-32.688,0-59.179-2.698-59.179-6.039c0-3.328,26.492-6.031,59.179-6.031C233.678,798.156,260.174,800.859,260.174,804.188z"/>
	<path style="opacity:0.7073;fill:#221F1F;" d="M257.308,804.188c0,3.179-25.213,5.747-56.313,5.747
		c-31.104,0-56.313-2.568-56.313-5.747c0-3.167,25.209-5.738,56.313-5.738C232.095,798.449,257.308,801.021,257.308,804.188z"/>
	<path style="opacity:0.7317;fill:#221F1F;" d="M254.442,804.188c0,3.018-23.93,5.455-53.448,5.455
		c-29.522,0-53.447-2.438-53.447-5.455c0-3.005,23.925-5.446,53.447-5.446C230.512,798.741,254.442,801.183,254.442,804.188z"/>
	<path style="opacity:0.7561;fill:#221F1F;" d="M251.576,804.188c0,2.857-22.647,5.163-50.582,5.163
		c-27.939,0-50.581-2.307-50.581-5.163c0-2.844,22.643-5.154,50.581-5.154C228.929,799.033,251.576,801.344,251.576,804.188z"/>
	<path style="opacity:0.7805;fill:#221F1F;" d="M248.71,804.188c0,2.695-21.364,4.87-47.716,4.87
		c-26.356,0-47.715-2.175-47.715-4.87c0-2.683,21.359-4.861,47.715-4.861C227.346,799.326,248.71,801.505,248.71,804.188z"/>
	<path style="opacity:0.8049;fill:#221F1F;" d="M245.844,804.188c0,2.534-20.081,4.578-44.85,4.578
		c-24.773,0-44.85-2.044-44.85-4.578c0-2.521,20.076-4.569,44.85-4.569C225.763,799.618,245.844,801.666,245.844,804.188z"/>
	<path style="opacity:0.8293;fill:#221F1F;" d="M242.979,804.188c0,2.373-18.799,4.286-41.984,4.286
		c-23.19,0-41.983-1.913-41.983-4.286c0-2.36,18.793-4.277,41.983-4.277C224.18,799.91,242.979,801.827,242.979,804.188z"/>
	<path style="opacity:0.8537;fill:#221F1F;" d="M240.112,804.188c0,2.212-17.516,3.994-39.118,3.994
		c-21.608,0-39.118-1.782-39.118-3.994c0-2.198,17.51-3.984,39.118-3.984C222.597,800.203,240.112,801.989,240.112,804.188z"/>
	<path style="opacity:0.878;fill:#221F1F;" d="M237.247,804.188c0,2.051-16.233,3.701-36.252,3.701
		c-20.025,0-36.251-1.65-36.251-3.701c0-2.037,16.227-3.692,36.251-3.692C221.014,800.495,237.247,802.15,237.247,804.188z"/>
	<path style="opacity:0.9024;fill:#221F1F;" d="M234.38,804.188c0,1.889-14.95,3.409-33.386,3.409
		c-18.442,0-33.386-1.521-33.386-3.409c0-1.876,14.944-3.399,33.386-3.399C219.431,800.788,234.38,802.312,234.38,804.188z"/>
	<path style="opacity:0.9268;fill:#221F1F;" d="M231.515,804.188c0,1.728-13.667,3.117-30.521,3.117
		c-16.859,0-30.52-1.39-30.52-3.117c0-1.715,13.66-3.107,30.52-3.107C217.848,801.08,231.515,802.473,231.515,804.188z"/>
	<path style="opacity:0.9512;fill:#221F1F;" d="M228.649,804.188c0,1.566-12.384,2.825-27.655,2.825
		c-15.276,0-27.654-1.259-27.654-2.825c0-1.553,12.377-2.815,27.654-2.815C216.265,801.372,228.649,802.635,228.649,804.188z"/>
	<path style="opacity:0.9756;fill:#221F1F;" d="M225.783,804.188c0,1.405-11.101,2.532-24.789,2.532
		c-13.694,0-24.788-1.127-24.788-2.532c0-1.392,11.094-2.522,24.788-2.522C214.682,801.665,225.783,802.796,225.783,804.188z"/>
	<path style="fill:#221F1F;" d="M222.917,804.188c0,1.244-9.818,2.24-21.923,2.24c-12.111,0-21.922-0.996-21.922-2.24
		c0-1.23,9.811-2.23,21.922-2.23C213.099,801.957,222.917,802.957,222.917,804.188z"/>
</g>
<g>
	<g>
		<g>
			<polygon style="fill:#D0D2D3;" points="574.804,771.494 413.68,771.494 436.975,662.785 551.509,662.785 			"/>
			<polygon style="fill:#BBBDBF;" points="564.682,724.254 551.509,662.785 436.975,662.785 423.802,724.254 			"/>
			<path style="fill:#E6E6E7;" d="M608.566,784.023H379.918c-12.131,0-13.999-16.057-13.999-16.057h256.645
				C622.564,767.967,620.699,784.023,608.566,784.023z"/>
		</g>
		<path style="fill:#221F1F;" d="M796.646,641.04c0,14.749-11.95,26.698-26.699,26.698H218.538
			c-14.749,0-26.699-11.949-26.699-26.698V320.651c0-14.747,11.949-26.704,26.699-26.704h551.409
			c14.749,0,26.699,11.957,26.699,26.704V641.04z"/>
		<path style="fill:#E6E6E7;" d="M191.839,633.809v52.543c0,14.744,11.949,26.698,26.699,26.698h551.409
			c14.749,0,26.699-11.954,26.699-26.698v-52.543H191.839z"/>
		<rect x="211.352" y="319.17" style="fill:#F0F1F1;" width="565.78" height="290.697"/>
		<circle style="fill:#929597;" cx="494.242" cy="672.029" r="19.324"/>
	</g>
	<g>
		<rect x="286.612" y="332.967" style="fill:#914E93;" width="123.23" height="27.089"/>
		<rect x="432.632" y="332.967" style="fill:#BBBDBF;" width="269.243" height="27.089"/>
		<rect x="286.612" y="372.411" style="fill:#29A9E0;" width="415.263" height="74.637"/>
		<rect x="286.616" y="462.069" style="fill:#F69322;" width="123.226" height="75.522"/>
		<rect x="432.632" y="462.069" style="fill:#D34040;" width="123.226" height="75.522"/>
		<rect x="578.647" y="462.069" style="fill:#8BC543;" width="123.228" height="75.522"/>
		<g>
			<rect x="286.616" y="549.09" style="fill:#929597;" width="123.226" height="10.727"/>
			<rect x="286.616" y="568.06" style="fill:#BBBDBF;" width="123.226" height="10.727"/>
			<rect x="286.616" y="587.031" style="fill:#BBBDBF;" width="123.226" height="10.726"/>
		</g>
		<g>
			<rect x="432.632" y="549.09" style="fill:#929597;" width="123.226" height="10.727"/>
			<rect x="432.632" y="568.06" style="fill:#BBBDBF;" width="123.226" height="10.727"/>
			<rect x="432.632" y="587.031" style="fill:#BBBDBF;" width="123.226" height="10.726"/>
		</g>
		<g>
			<rect x="578.647" y="549.09" style="fill:#929597;" width="123.228" height="10.727"/>
			<rect x="578.647" y="568.06" style="fill:#BBBDBF;" width="123.228" height="10.727"/>
			<rect x="578.647" y="587.031" style="fill:#BBBDBF;" width="123.228" height="10.726"/>
		</g>
	</g>
	<g style="opacity:0.3;">
		<path style="fill:#FFFFFF;" d="M769.946,294.356H387.201l253.008,419.102h129.737c14.749,0,26.699-11.95,26.699-26.699v-45.31
			v-7.232V321.061C796.646,306.313,784.695,294.356,769.946,294.356z"/>
	</g>
</g>
<g>
	<g>
		<path style="fill:#221F1F;" d="M1069.976,842.345V566.769c0-13.132-10.643-23.779-23.775-23.779H649.376
			c-13.132,0-23.775,10.647-23.775,23.779v275.576H1069.976z"/>
		<path style="fill:#BBBDBF;" d="M1105.418,858.562H590.161c-10.689,0-12.333-14.147-12.333-14.147h539.919
			C1117.747,844.414,1116.104,858.562,1105.418,858.562z"/>
		<rect x="577.828" y="838.89" style="fill:#E6E6E7;" width="539.919" height="7.935"/>
		<rect x="795.689" y="838.89" style="fill:#BBBDBF;" width="104.195" height="4.499"/>
		<rect x="642.979" y="565.451" style="fill:#F0F1F1;" width="409.621" height="258.858"/>
	</g>
	<g>
		<rect x="661.563" y="577.704" style="fill:#914E93;" width="109.731" height="24.124"/>
		<rect x="791.586" y="577.704" style="fill:#BBBDBF;" width="239.754" height="24.124"/>
		<rect x="661.563" y="612.829" style="fill:#29A9E0;" width="369.776" height="66.464"/>
		<rect x="661.563" y="692.668" style="fill:#F69322;" width="109.731" height="67.249"/>
		<rect x="791.586" y="692.668" style="fill:#D34040;" width="109.73" height="67.249"/>
		<rect x="921.609" y="692.668" style="fill:#8BC543;" width="109.73" height="67.249"/>
		<g>
			<rect x="661.563" y="770.154" style="fill:#929597;" width="109.731" height="9.555"/>
			<rect x="661.563" y="787.049" style="fill:#BBBDBF;" width="109.731" height="9.553"/>
			<rect x="661.563" y="803.94" style="fill:#BBBDBF;" width="109.731" height="9.554"/>
		</g>
		<g>
			<rect x="791.586" y="770.154" style="fill:#929597;" width="109.73" height="9.555"/>
			<rect x="791.586" y="787.049" style="fill:#BBBDBF;" width="109.73" height="9.553"/>
			<rect x="791.586" y="803.94" style="fill:#BBBDBF;" width="109.73" height="9.554"/>
		</g>
		<g>
			<rect x="921.609" y="770.154" style="fill:#929597;" width="109.73" height="9.555"/>
			<rect x="921.609" y="787.049" style="fill:#BBBDBF;" width="109.73" height="9.553"/>
			<rect x="921.609" y="803.94" style="fill:#BBBDBF;" width="109.73" height="9.554"/>
		</g>
	</g>
	<path style="opacity:0.3;fill:#FFFFFF;" d="M1070.124,837.928V566.769c0-13.132-10.638-23.779-23.771-23.779H773.098
		l178.05,294.938H1070.124z"/>
</g>
<g>
	<g>
		<path style="fill:#221F1F;" d="M113.592,807.367c-7.349,0-13.301-5.955-13.301-13.305V526.211c0-7.345,5.953-13.301,13.301-13.301
			h179.137c7.349,0,13.303,5.956,13.303,13.301v267.852c0,7.35-5.955,13.305-13.303,13.305H113.592z"/>
		<rect x="114.312" y="541.559" style="fill:#F0F1F1;" width="177.702" height="237.158"/>
		<path style="fill:#403F41;" d="M217.03,793.799c0,2.691-2.182,4.873-4.875,4.873h-15.321c-2.691,0-4.871-2.182-4.871-4.873l0,0
			c0-2.694,2.18-4.873,4.871-4.873h15.321C214.848,788.926,217.03,791.104,217.03,793.799L217.03,793.799z"/>
	</g>
	<g>
		<rect x="123.7" y="554.645" style="fill:#914E93;" width="55.005" height="23.401"/>
		<rect x="188.438" y="554.645" style="fill:#BBBDBF;" width="94.126" height="23.401"/>
		<rect x="123.702" y="590.632" style="fill:#29A9E0;" width="158.861" height="65.757"/>
		<rect x="123.7" y="668.94" style="fill:#F69322;" width="72.258" height="44.286"/>
		<rect x="209.319" y="668.94" style="fill:#D34040;" width="72.258" height="44.286"/>
		<g>
			<rect x="123.7" y="724.06" style="fill:#929597;" width="72.258" height="6.291"/>
			<rect x="123.7" y="736.893" style="fill:#BBBDBF;" width="72.258" height="6.291"/>
			<rect x="123.7" y="749.727" style="fill:#BBBDBF;" width="72.258" height="6.289"/>
			<rect x="123.702" y="762.557" style="fill:#BBBDBF;" width="72.258" height="6.291"/>
		</g>
		<g>
			<rect x="209.319" y="724.06" style="fill:#929597;" width="72.258" height="6.291"/>
			<rect x="209.319" y="736.893" style="fill:#BBBDBF;" width="72.258" height="6.291"/>
			<rect x="209.319" y="749.727" style="fill:#BBBDBF;" width="72.258" height="6.289"/>
			<rect x="209.319" y="762.561" style="fill:#BBBDBF;" width="72.258" height="6.291"/>
		</g>
	</g>
	<path style="opacity:0.3;fill:#FFFFFF;" d="M286.192,807.363h6.537c7.349,0,13.305-5.955,13.305-13.301V526.211
		c0-7.347-5.956-13.301-13.305-13.301H113.594c-1.638,0-3.199,0.309-4.647,0.85L286.192,807.363z"/>
</g>
<g>
	<g>
		<path style="fill:#221F1F;" d="M379.01,849.807c0,6.504-5.271,11.771-11.77,11.771h-95.885c-6.503,0-11.768-5.267-11.768-11.771
			V666.451c0-6.499,5.265-11.771,11.768-11.771h95.885c6.499,0,11.77,5.273,11.77,11.771V849.807z"/>
		<rect x="266.94" y="680.688" style="fill:#F0F1F1;" width="104.715" height="151.871"/>
		<path style="fill:#403F41;" d="M323.695,669.066c0,2.432-1.97,4.398-4.398,4.398c-2.428,0-4.399-1.967-4.399-4.398
			c0-2.428,1.972-4.396,4.399-4.396C321.726,664.67,323.695,666.639,323.695,669.066z"/>
		<path style="fill:#403F41;" d="M331.751,847.212c0,2.675-2.169,4.841-4.843,4.841h-15.221c-2.676,0-4.843-2.166-4.843-4.841l0,0
			c0-2.676,2.167-4.841,4.843-4.841h15.221C329.582,842.371,331.751,844.536,331.751,847.212L331.751,847.212z"/>
	</g>
	<g>
		<rect x="272.203" y="685.516" style="fill:#914E93;" width="94.49" height="15.261"/>
		<rect x="272.205" y="705.895" style="fill:#BBBDBF;" width="94.484" height="16.893"/>
		<rect x="272.205" y="729.027" style="fill:#29A9E0;" width="94.486" height="38.132"/>
		<rect x="272.203" y="773.202" style="fill:#F69322;" width="94.486" height="52.674"/>
	</g>
	<path style="opacity:0.3;fill:#FFFFFF;" d="M377.279,855.19c0.831-1.614,1.311-3.44,1.311-5.384V666.451
		c0-6.499-5.271-11.771-11.77-11.771h-95.885c-4.703,0-8.745,2.764-10.63,6.746L377.279,855.19z"/>
</g>
</svg>
